<?xml version="1.0" encoding="UTF-8" standalone="no"?>
<!-- Created with Inkscape (http://www.inkscape.org/) -->

<svg
   xmlns:dc="http://purl.org/dc/elements/1.1/"
   xmlns:cc="http://creativecommons.org/ns#"
   xmlns:rdf="http://www.w3.org/1999/02/22-rdf-syntax-ns#"
   xmlns:svg="http://www.w3.org/2000/svg"
   xmlns="http://www.w3.org/2000/svg"
   xmlns:sodipodi="http://sodipodi.sourceforge.net/DTD/sodipodi-0.dtd"
   xmlns:inkscape="http://www.inkscape.org/namespaces/inkscape"
   width="149.98956"
   height="34.808529"
   viewBox="0 0 39.684738 9.2097565"
   version="1.1"
   id="svg2494"
   inkscape:version="0.92.0 r15299"
   sodipodi:docname="riba.svg">
  <defs
     id="defs2488">
    <clipPath
       id="clip22">
      <path
         inkscape:connector-curvature="0"
         id="path1148"
         d="m 564,33 h 6.46875 V 44 H 564 Z m 0,0" />
    </clipPath>
    <clipPath
       id="clip21">
      <path
         inkscape:connector-curvature="0"
         id="path1145"
         d="m 551,26.1875 h 2 V 28 h -2 z m 0,0" />
    </clipPath>
    <clipPath
       id="clip20">
      <path
         inkscape:connector-curvature="0"
         id="path1142"
         d="m 555,26.1875 h 2 V 28 h -2 z m 0,0" />
    </clipPath>
    <clipPath
       id="clip19">
      <path
         inkscape:connector-curvature="0"
         id="path1139"
         d="m 553,26.1875 h 2 V 28 h -2 z m 0,0" />
    </clipPath>
    <clipPath
       id="clip18">
      <path
         inkscape:connector-curvature="0"
         id="path1136"
         d="M 458.50391,29 H 478 v 23 h -19.49609 z m 0,0" />
    </clipPath>
    <clipPath
       id="clip17">
      <path
         inkscape:connector-curvature="0"
         id="path1133"
         d="m 555,62 h 11 v 7.347656 h -11 z m 0,0" />
    </clipPath>
    <clipPath
       id="clip16">
      <path
         inkscape:connector-curvature="0"
         id="path1130"
         d="m 547,62 h 7 v 7.347656 h -7 z m 0,0" />
    </clipPath>
    <clipPath
       id="clip15">
      <path
         inkscape:connector-curvature="0"
         id="path1127"
         d="m 539,62 h 7 v 7.347656 h -7 z m 0,0" />
    </clipPath>
    <clipPath
       id="clip14">
      <path
         inkscape:connector-curvature="0"
         id="path1124"
         d="m 536,67 h 3 v 2.347656 h -3 z m 0,0" />
    </clipPath>
    <clipPath
       id="clip13">
      <path
         inkscape:connector-curvature="0"
         id="path1121"
         d="m 529,62 h 7 v 7.347656 h -7 z m 0,0" />
    </clipPath>
    <clipPath
       id="clip12">
      <path
         inkscape:connector-curvature="0"
         id="path1118"
         d="m 524,62 h 5 v 7.347656 h -5 z m 0,0" />
    </clipPath>
    <clipPath
       id="clip11">
      <path
         inkscape:connector-curvature="0"
         id="path1115"
         d="m 516,62 h 7 v 7.347656 h -7 z m 0,0" />
    </clipPath>
    <clipPath
       id="clip10">
      <path
         inkscape:connector-curvature="0"
         id="path1112"
         d="m 511,60 h 4 v 9.347656 h -4 z m 0,0" />
    </clipPath>
    <clipPath
       id="clip9">
      <path
         inkscape:connector-curvature="0"
         id="path1109"
         d="m 504,62 h 7 v 7.347656 h -7 z m 0,0" />
    </clipPath>
    <clipPath
       id="clip8">
      <path
         inkscape:connector-curvature="0"
         id="path1106"
         d="m 497,62 h 6 v 7.347656 h -6 z m 0,0" />
    </clipPath>
    <clipPath
       id="clip7">
      <path
         inkscape:connector-curvature="0"
         id="path1103"
         d="m 492,60 h 4 v 9.347656 h -4 z m 0,0" />
    </clipPath>
    <clipPath
       id="clip6">
      <path
         inkscape:connector-curvature="0"
         id="path1100"
         d="m 489,59 h 2 v 10.347656 h -2 z m 0,0" />
    </clipPath>
    <clipPath
       id="clip5">
      <path
         inkscape:connector-curvature="0"
         id="path1097"
         d="m 481,58 h 6 v 11.347656 h -6 z m 0,0" />
    </clipPath>
    <clipPath
       id="clip4">
      <path
         inkscape:connector-curvature="0"
         id="path1094"
         d="m 473,62 h 7 v 7.347656 h -7 z m 0,0" />
    </clipPath>
    <clipPath
       id="clip3">
      <path
         inkscape:connector-curvature="0"
         id="path1091"
         d="m 468,62 h 5 v 7.347656 h -5 z m 0,0" />
    </clipPath>
    <clipPath
       id="clip2">
      <path
         inkscape:connector-curvature="0"
         id="path1088"
         d="M 458.50391,58 H 467 v 11.347656 h -8.49609 z m 0,0" />
    </clipPath>
  </defs>
  <sodipodi:namedview
     id="base"
     pagecolor="#ffffff"
     bordercolor="#666666"
     borderopacity="1.0"
     inkscape:pageopacity="0.0"
     inkscape:pageshadow="2"
     inkscape:zoom="5.3722233"
     inkscape:cx="74.346345"
     inkscape:cy="5.0350966"
     inkscape:document-units="mm"
     inkscape:current-layer="layer1"
     showgrid="false"
     fit-margin-top="0"
     fit-margin-left="0"
     fit-margin-right="0"
     fit-margin-bottom="0"
     units="px"
     inkscape:window-width="1280"
     inkscape:window-height="744"
     inkscape:window-x="-4"
     inkscape:window-y="-4"
     inkscape:window-maximized="1" />
  <metadata
     id="metadata2491">
    <rdf:RDF>
      <cc:Work
         rdf:about="">
        <dc:format>image/svg+xml</dc:format>
        <dc:type
           rdf:resource="http://purl.org/dc/dcmitype/StillImage" />
        <dc:title></dc:title>
      </cc:Work>
    </rdf:RDF>
  </metadata>
  <g
     inkscape:label="Layer 1"
     inkscape:groupmode="layer"
     id="layer1"
     transform="translate(-105.06134,-167.41412)">
    <g
       id="g3095"
       transform="translate(0.13229362,-0.13228734)">
      <g
         transform="matrix(0.35277777,0,0,0.35277777,-56.767194,158.44033)"
         id="g1363"
         clip-path="url(#clip18)"
         style="clip-rule:nonzero;fill:#000000">
        <path
           id="path1361"
           d="m 459.03906,29.742188 c 0.75781,0 2.05469,0.457031 2.05469,2.394531 v 16.714844 c 0,1.90625 -1.22656,2.394531 -2.36719,2.429687 v 0.242188 h 7.03906 V 51.28125 c -0.96093,-0.03516 -2.40234,-0.371094 -2.40234,-2.429687 v -8.425782 c 1.47656,0 3.54297,0.09375 5.84375,3.90625 l 2.63672,4.703125 c 0.0352,0.03125 0.52734,0.800782 0.80469,1.199219 0.45703,0.675781 0.70312,0.949219 0.94922,1.289063 h 4.02343 V 51.28125 c -0.66797,-0.0625 -1.7539,-0.09766 -3.77734,-3.535156 l -2,-3.722656 c -0.94922,-1.601563 -2.02344,-3.015625 -3.65234,-3.8125 v -0.05859 c 3.22656,-0.585938 4.63671,-2.8125 4.63671,-5.113281 0,-2.152344 -1.26171,-5.605469 -6.44921,-5.605469 h -7.65235 v 0.308594 z m 4.32422,10.101562 v -9.707031 c 0.3125,-0.0625 0.67969,-0.121094 1.38672,-0.121094 4.42187,0 5.53125,3.023438 5.53125,5.203125 0,2.953125 -1.54297,4.625 -5.65625,4.625 h -1.26172"
           style="fill:#000000;fill-opacity:1;fill-rule:nonzero;stroke:none"
           inkscape:connector-curvature="0" />
      </g>
      <path
         id="path1365"
         d="m 115.30706,168.91066 c -0.40238,0 -0.83647,0.18328 -0.83647,0.84474 v 5.91867 c 0,0.67249 0.48921,0.85714 0.83647,0.85714 v 0.0854 h -2.4722 v -0.0854 c 0.37896,0 0.83096,-0.18465 0.83096,-0.85714 v -5.91867 c 0,-0.72623 -0.49609,-0.84474 -0.83096,-0.84474 v -0.0868 h 2.4722 v 0.0868"
         style="fill:#000000;fill-opacity:1;fill-rule:nonzero;stroke:none;stroke-width:0.35277778"
         inkscape:connector-curvature="0" />
      <path
         id="path1367"
         d="m 119.45358,172.73058 c 1.32016,0 2.16765,0.64493 2.16765,1.8259 0,0.27148 -0.0661,0.71658 -0.31419,1.10519 -0.24942,0.39274 -0.71382,0.71658 -1.531,0.71658 -1.12723,0 -1.12723,-0.53054 -1.12723,-0.93155 v -2.71612 z m 0.4768,3.88607 c 0.12954,0 1.01699,-0.01 1.56132,-0.31419 0.42168,-0.2384 1.02939,-0.80202 1.02939,-1.7129 0,-0.57464 -0.24115,-1.06109 -0.63941,-1.43041 -0.4768,-0.44235 -1.09967,-0.54432 -1.74597,-0.6022 v -0.0221 c 0.9536,-0.24942 1.67983,-0.84336 1.67983,-1.84106 0,-0.98667 -0.88746,-1.87 -2.25585,-1.87 h -2.54662 v 0.0868 h 0.0992 c 0.44098,0 0.73725,0.31282 0.73725,0.87644 v 5.88698 c 0,0.61874 -0.37896,0.85714 -0.72622,0.85714 h -0.11024 v 0.0854 z m -1.28157,-4.12447 v -3.31142 c 0.14193,-0.0441 0.37069,-0.11989 0.69453,-0.11989 0.9219,0 1.57234,0.83096 1.57234,1.78594 0,1.00734 -0.70556,1.43867 -0.86679,1.51584 -0.1502,0.0744 -0.36656,0.12953 -0.88746,0.12953 h -0.51262"
         style="fill:#000000;fill-opacity:1;fill-rule:nonzero;stroke:none;stroke-width:0.35277778"
         inkscape:connector-curvature="0" />
      <path
         id="path1369"
         d="m 125.86008,172.45773 0.89848,-2.74781 h 0.0234 l 0.97427,2.74781 z m 0.0896,-3.57463 c 0.26872,0 0.5209,0.0978 0.6463,0.34038 l -2.0643,6.20392 c -0.226,0.68351 -0.49748,1.05145 -1.0418,1.09554 v 0.0868 h 1.92374 v -0.0868 c -0.32659,0 -0.63114,-0.0661 -0.63114,-0.54294 0,-0.16123 0.0758,-0.46578 0.12678,-0.62839 l 0.85163,-2.59898 h 2.1015 l 0.9729,2.75057 c 0,0.011 0.0124,0.0441 0.0207,0.0648 0.0786,0.23978 0.0978,0.41203 0.0978,0.47818 0,0.50849 -0.4768,0.4768 -0.81166,0.4768 v 0.0868 h 2.54661 v -0.0868 c -0.37896,-0.0331 -0.6711,-0.0537 -1.05282,-1.12724 l -2.33026,-6.58564 h -1.35599 v 0.073"
         style="fill:#000000;fill-opacity:1;fill-rule:nonzero;stroke:none;stroke-width:0.35277778"
         inkscape:connector-curvature="0" />
      <path
         id="path1371"
         d="m 139.10027,175.63962 h -0.86679 c -0.0909,0 -0.15709,0.0717 -0.15709,0.1571 0,0.0896 0.0661,0.15985 0.15709,0.15985 h 0.86679 c 0.0909,0 0.15847,-0.0703 0.15847,-0.15985 0,-0.0854 -0.0675,-0.1571 -0.15847,-0.1571"
         style="fill:#000000;fill-opacity:1;fill-rule:nonzero;stroke:none;stroke-width:0.35277778"
         inkscape:connector-curvature="0" />
      <path
         id="path1373"
         d="m 139.23119,176.43751 h -1.12724 v -0.26183 h 1.12724 z m 0.17363,-0.13367 v 0.31006 h -1.48277 v -0.61874 h 1.48277 v 0.31419 h -0.14194 v -0.16674 h -1.19476 v 0.32659 h 1.19476 v -0.16674 z m 0,0"
         style="fill:#000000;fill-opacity:1;fill-rule:nonzero;stroke:none;stroke-width:0.35277778"
         inkscape:connector-curvature="0" />
      <path
         id="path1375"
         d="m 139.62944,168.23818 c -0.0317,-0.006 -0.0634,-0.011 -0.0909,-0.0165 l -0.0661,0.32522 c 0.0303,0.005 0.0579,0.01 0.0854,0.0138 l 0.0717,-0.32246"
         style="fill:#000000;fill-opacity:1;fill-rule:nonzero;stroke:none;stroke-width:0.35277778"
         inkscape:connector-curvature="0" />
      <path
         id="path1377"
         d="m 139.50266,168.21613 c -0.0978,-0.0152 -0.19293,-0.0276 -0.29077,-0.04 l -0.0482,0.33624 c 0.10336,0.008 0.19706,0.0193 0.27699,0.0303 l 0.062,-0.32659"
         style="fill:#000000;fill-opacity:1;fill-rule:nonzero;stroke:none;stroke-width:0.35277778"
         inkscape:connector-curvature="0" />
      <g
         transform="matrix(0.35277777,0,0,0.35277777,-56.767194,158.44033)"
         id="g1381"
         clip-path="url(#clip19)"
         style="clip-rule:nonzero;fill:#000000">
        <path
           id="path1379"
           d="m 554.05469,27.425781 c 0.16797,0 0.32422,0.0039 0.48047,0.0078 l 0.0547,-1.246094 h -1.07031 l 0.0547,1.242188 c 0.15625,-0.0039 0.3125,-0.0039 0.48047,-0.0039"
           style="fill:#000000;fill-opacity:1;fill-rule:nonzero;stroke:none"
           inkscape:connector-curvature="0" />
      </g>
      <path
         id="path1383"
         d="m 138.71028,168.49036 c 0.0868,0 0.17364,0.003 0.26046,0.008 l 0.0275,-0.34038 c -0.0951,-0.005 -0.19293,-0.01 -0.28801,-0.01 v 0.34176"
         style="fill:#000000;fill-opacity:1;fill-rule:nonzero;stroke:none;stroke-width:0.35277778"
         inkscape:connector-curvature="0" />
      <g
         transform="matrix(0.35277777,0,0,0.35277777,-56.767194,158.44033)"
         id="g1387"
         clip-path="url(#clip20)"
         style="clip-rule:nonzero;fill:#000000">
        <path
           id="path1385"
           d="m 556.73828,27.683594 0.25391,-1.125 c -0.10938,-0.03125 -0.79297,-0.148438 -0.79297,-0.148438 l -0.22266,1.148438 c 0.2461,0.03516 0.50391,0.07422 0.76172,0.125"
           style="fill:#000000;fill-opacity:1;fill-rule:nonzero;stroke:none"
           inkscape:connector-curvature="0" />
      </g>
      <path
         id="path1389"
         d="m 139.17606,168.88172 0.0469,-0.33073 c -0.0978,-0.01 -0.20946,-0.0179 -0.3197,-0.0234 l -0.0193,0.35416 h 0.29214"
         style="fill:#000000;fill-opacity:1;fill-rule:nonzero;stroke:none;stroke-width:0.35277778"
         inkscape:connector-curvature="0" />
      <path
         id="path1391"
         d="m 138.21832,168.51241 -0.0482,-0.33624 c -0.10611,0.01 -0.20119,0.0248 -0.29076,0.04 l 0.062,0.32659 c 0.0799,-0.011 0.17363,-0.0221 0.27698,-0.0303"
         style="fill:#000000;fill-opacity:1;fill-rule:nonzero;stroke:none;stroke-width:0.35277778"
         inkscape:connector-curvature="0" />
      <path
         id="path1393"
         d="m 138.67584,168.14861 c -0.10749,0 -0.2012,0.004 -0.29215,0.008 l 0.0275,0.34175 c 0.0868,-0.006 0.17363,-0.008 0.26458,-0.008 v -0.34175"
         style="fill:#000000;fill-opacity:1;fill-rule:nonzero;stroke:none;stroke-width:0.35277778"
         inkscape:connector-curvature="0" />
      <path
         id="path1395"
         d="m 137.75255,168.23818 0.0758,0.32246 c 0.0234,-0.004 0.051,-0.008 0.0827,-0.0138 l -0.0675,-0.32522 c -0.0275,0.005 -0.0593,0.011 -0.0909,0.0165"
         style="fill:#000000;fill-opacity:1;fill-rule:nonzero;stroke:none;stroke-width:0.35277778"
         inkscape:connector-curvature="0" />
      <path
         id="path1397"
         d="m 138.12738,168.55375 c -0.12265,0.0124 -0.22049,0.0276 -0.29215,0.0413 l 0.0634,0.28663 h 0.27561 l -0.0469,-0.32797"
         style="fill:#000000;fill-opacity:1;fill-rule:nonzero;stroke:none;stroke-width:0.35277778"
         inkscape:connector-curvature="0" />
      <path
         id="path1399"
         d="m 139.25461,168.55375 -0.0427,0.32797 h 0.27147 l 0.0675,-0.28663 c -0.0717,-0.0138 -0.17363,-0.0289 -0.29628,-0.0413"
         style="fill:#000000;fill-opacity:1;fill-rule:nonzero;stroke:none;stroke-width:0.35277778"
         inkscape:connector-curvature="0" />
      <path
         id="path1401"
         d="m 138.86876,168.52619 c -0.0593,-0.001 -0.11851,-0.001 -0.17777,-0.001 -0.0593,0 -0.11851,0 -0.17776,0.001 l 0.0207,0.35553 h 0.31833 l 0.0166,-0.35553"
         style="fill:#000000;fill-opacity:1;fill-rule:nonzero;stroke:none;stroke-width:0.35277778"
         inkscape:connector-curvature="0" />
      <g
         transform="matrix(0.35277777,0,0,0.35277777,-56.767194,158.44033)"
         id="g1405"
         clip-path="url(#clip21)"
         style="clip-rule:nonzero;fill:#000000">
        <path
           id="path1403"
           d="m 552.14453,27.554688 -0.23437,-1.144532 c 0,0 -0.6836,0.117188 -0.78516,0.148438 l 0.24609,1.125 c 0.2461,-0.04687 0.49219,-0.08984 0.77344,-0.128906"
           style="fill:#000000;fill-opacity:1;fill-rule:nonzero;stroke:none"
           inkscape:connector-curvature="0" />
      </g>
      <path
         id="path1407"
         d="m 138.49807,168.88172 -0.0207,-0.35415 c -0.11024,0.006 -0.22049,0.0138 -0.3142,0.0234 l 0.0427,0.33073 h 0.29215"
         style="fill:#000000;fill-opacity:1;fill-rule:nonzero;stroke:none;stroke-width:0.35277778"
         inkscape:connector-curvature="0" />
      <path
         id="path1409"
         d="m 139.10027,168.9148 h -0.86679 c -0.0909,0 -0.15709,0.0717 -0.15709,0.15847 0,0.0882 0.0661,0.15847 0.15709,0.15847 h 0.86679 c 0.0909,0 0.15847,-0.0703 0.15847,-0.15847 0,-0.0868 -0.0675,-0.15847 -0.15847,-0.15847"
         style="fill:#000000;fill-opacity:1;fill-rule:nonzero;stroke:none;stroke-width:0.35277778"
         inkscape:connector-curvature="0" />
      <path
         id="path1411"
         d="m 138.67584,172.353 c -0.0207,0.0207 -0.2136,0.21635 -0.2136,0.21635 l -0.22462,-0.22462 v 0.42995 c 0.0469,0.051 0.20533,0.20808 0.22462,0.226 0.0193,-0.0207 0.2136,-0.21497 0.2136,-0.21497 0,0 0.20119,0.19843 0.22048,0.2191 0.0193,-0.0165 0.16123,-0.15985 0.22049,-0.2191 V 172.353 l -0.22049,0.22187 c 0,0 -0.19706,-0.2012 -0.22048,-0.22187"
         style="fill:#000000;fill-opacity:1;fill-rule:nonzero;stroke:none;stroke-width:0.35277778"
         inkscape:connector-curvature="0" />
      <path
         id="path1413"
         d="m 138.89632,174.9699 0.22049,-0.22049 v 0.4327 c -0.0593,0.0593 -0.2012,0.20258 -0.22049,0.22049 -0.0207,-0.0221 -0.22048,-0.22186 -0.22048,-0.22186 0,0 -0.19431,0.19292 -0.2136,0.21497 -0.0193,-0.0165 -0.17777,-0.17501 -0.22462,-0.22324 v -0.43133 l 0.22462,0.22462 c 0,0 0.19292,-0.19568 0.2136,-0.21773 0.0234,0.0221 0.22048,0.22187 0.22048,0.22187"
         style="fill:#000000;fill-opacity:1;fill-rule:nonzero;stroke:none;stroke-width:0.35277778"
         inkscape:connector-curvature="0" />
      <path
         id="path1415"
         d="m 138.89632,169.69752 0.22049,-0.21911 v 0.43133 c -0.0593,0.0593 -0.2012,0.20395 -0.22049,0.22049 -0.0207,-0.0207 -0.22048,-0.22187 -0.22048,-0.22187 0,0 -0.19431,0.1943 -0.2136,0.21635 -0.0193,-0.0179 -0.17777,-0.17501 -0.22462,-0.22462 v -0.42994 l 0.22462,0.22324 c 0,0 0.19292,-0.19293 0.2136,-0.21635 0.0234,0.0234 0.22048,0.22048 0.22048,0.22048"
         style="fill:#000000;fill-opacity:1;fill-rule:nonzero;stroke:none;stroke-width:0.35277778"
         inkscape:connector-curvature="0" />
      <path
         id="path1417"
         d="m 139.11681,169.26757 v 0.16261 c -0.0593,0.0606 -0.2012,0.20395 -0.22187,0.22049 -0.0179,-0.022 -0.2191,-0.22049 -0.2191,-0.22049 0,0 -0.19431,0.19431 -0.2136,0.21498 -0.0193,-0.0165 -0.17777,-0.17501 -0.22462,-0.22462 v -0.15297 h 0.87919"
         style="fill:#000000;fill-opacity:1;fill-rule:nonzero;stroke:none;stroke-width:0.35277778"
         inkscape:connector-curvature="0" />
      <path
         id="path1419"
         d="m 138.89632,175.44945 0.22049,-0.21911 v 0.37345 h -0.87919 v -0.38447 l 0.22462,0.22462 c 0,0 0.19292,-0.1943 0.2136,-0.21497 0.0234,0.0207 0.22048,0.22048 0.22048,0.22048"
         style="fill:#000000;fill-opacity:1;fill-rule:nonzero;stroke:none;stroke-width:0.35277778"
         inkscape:connector-curvature="0" />
      <path
         id="path1421"
         d="m 136.62118,170.01171 h -0.26045 v -0.10473 h 0.26045 z m 0,0"
         style="fill:#000000;fill-opacity:1;fill-rule:nonzero;stroke:none;stroke-width:0.35277778"
         inkscape:connector-curvature="0" />
      <path
         id="path1423"
         d="m 136.32628,170.12058 h 0.2949 v 0.10473 h -0.2949 z m 0,0"
         style="fill:#000000;fill-opacity:1;fill-rule:nonzero;stroke:none;stroke-width:0.35277778"
         inkscape:connector-curvature="0" />
      <path
         id="path1425"
         d="m 136.62118,170.6525 h -1.40698 v -0.10473 h 1.40698 z m 0,0"
         style="fill:#000000;fill-opacity:1;fill-rule:nonzero;stroke:none;stroke-width:0.35277778"
         inkscape:connector-curvature="0" />
      <path
         id="path1427"
         d="m 136.62118,170.43891 h -0.38172 l 0.0661,-0.10198 v -0.003 l 0.31557,0.001 z m 0,0"
         style="fill:#000000;fill-opacity:1;fill-rule:nonzero;stroke:none;stroke-width:0.35277778"
         inkscape:connector-curvature="0" />
      <path
         id="path1429"
         d="m 135.48568,170.01171 h -0.27148 v -0.10473 h 0.27148 z m 0,0"
         style="fill:#000000;fill-opacity:1;fill-rule:nonzero;stroke:none;stroke-width:0.35277778"
         inkscape:connector-curvature="0" />
      <path
         id="path1431"
         d="m 135.5215,170.22531 h -0.3073 v -0.10473 h 0.3073 z m 0,0"
         style="fill:#000000;fill-opacity:1;fill-rule:nonzero;stroke:none;stroke-width:0.35277778"
         inkscape:connector-curvature="0" />
      <path
         id="path1433"
         d="m 135.41126,170.86748 h -0.19706 v -0.10473 h 0.34727 l -0.0207,0.01 c 0,0.001 -0.0744,0.0386 -0.12954,0.0951"
         style="fill:#000000;fill-opacity:1;fill-rule:nonzero;stroke:none;stroke-width:0.35277778"
         inkscape:connector-curvature="0" />
      <path
         id="path1435"
         d="m 135.31618,170.98323 c -0.0427,0.0579 -0.0744,0.11989 -0.0951,0.19568 v -0.19568 h 0.0951"
         style="fill:#000000;fill-opacity:1;fill-rule:nonzero;stroke:none;stroke-width:0.35277778"
         inkscape:connector-curvature="0" />
      <path
         id="path1437"
         d="m 135.60832,170.43891 h -0.39412 v -0.10473 h 0.3266 z m 0,0"
         style="fill:#000000;fill-opacity:1;fill-rule:nonzero;stroke:none;stroke-width:0.35277778"
         inkscape:connector-curvature="0" />
      <path
         id="path1439"
         d="m 136.11268,170.10818 0.0358,0.0386 -0.0275,0.22324 -0.0675,0.0165 v -0.23012 z m 0,0"
         style="fill:#000000;fill-opacity:1;fill-rule:nonzero;stroke:none;stroke-width:0.35277778"
         inkscape:connector-curvature="0" />
      <path
         id="path1441"
         d="m 135.83707,170.33142 v -0.21084 h 0.17364 v 0.21084 c 0,0.0689 -0.0317,0.12402 -0.0868,0.16123 -0.0551,-0.0372 -0.0868,-0.0923 -0.0868,-0.16123"
         style="fill:#000000;fill-opacity:1;fill-rule:nonzero;stroke:none;stroke-width:0.35277778"
         inkscape:connector-curvature="0" />
      <path
         id="path1443"
         d="m 135.70341,170.14676 0.0358,-0.0386 0.0579,0.0482 v 0.23013 l -0.0703,-0.0165 z m 0,0"
         style="fill:#000000;fill-opacity:1;fill-rule:nonzero;stroke:none;stroke-width:0.35277778"
         inkscape:connector-curvature="0" />
      <path
         id="path1445"
         d="m 138.19765,170.6401 c -0.007,0 -0.0152,0.003 -0.0234,0.006 -0.0386,0.0152 -0.051,0.0675 -0.0317,0.10197 0.004,0.003 0.0124,0.0138 0.0289,0.0427 0.0262,0.0482 0.0193,0.0896 0.007,0.11438 0,0 -0.0551,-0.0372 -0.11024,-0.0234 0,0 0.0193,-0.008 0.0234,-0.04 0.008,-0.0317 -0.0358,-0.0469 -0.0675,-0.0455 -0.0427,0.001 -0.12953,0.0248 -0.16123,0.12127 -0.0303,0.0951 -0.0703,0.19844 -0.23564,0.23151 -0.10336,0.0193 -0.24943,0.04 -0.31971,0.0579 -0.0785,0.0207 -0.1502,0.0455 -0.15847,0.0868 -0.003,0.04 0.0565,0.0758 0.11851,0.0923 0.0551,0.0165 0.16537,0.0303 0.24116,0.0303 0.15296,0 0.25494,-0.0124 0.33073,0.0303 0.0275,0.0152 0.0593,0.0413 0.0744,0.062 0.0441,0.0537 0.0799,0.073 0.11437,0.0785 0.04,0.01 0.0717,-0.0165 0.0593,-0.0482 -0.007,-0.0234 -0.0193,-0.0317 -0.0193,-0.0317 0.0675,0.008 0.11025,-0.0234 0.11025,-0.0234 0.0124,0.0262 0.0166,0.0634 -0.007,0.10473 -0.01,0.011 -0.0248,0.0372 -0.0248,0.0372 -0.0234,0.04 -0.0152,0.0992 0.0248,0.12127 0.007,0.003 0.011,0.006 0.0234,0.007 0.0427,0.008 0.0703,-0.0138 0.0703,-0.0138 -0.008,0.0579 -0.0469,0.0841 -0.0937,0.0854 -0.006,0.001 -0.01,0.001 -0.0124,0.001 -0.15296,-0.001 -0.2012,-0.16812 -0.2012,-0.16812 -0.0551,-0.113 -0.12264,-0.14607 -0.16122,-0.16123 -0.0441,-0.0152 -0.10336,-0.0193 -0.24805,0.0124 -0.12678,0.0276 -0.24116,0.0372 -0.339,0.0331 -0.28112,-0.0179 -0.40239,-0.0813 -0.45888,-0.17226 -0.0593,-0.0882 -0.062,-0.22186 -0.0262,-0.29352 0.0427,-0.0744 0.15296,-0.10886 0.28663,-0.0703 0.13505,0.0386 0.34726,0.0772 0.48507,0.0772 0.14193,0 0.22462,-0.0276 0.26458,-0.0909 0.0276,-0.0413 0.0386,-0.10611 0.0786,-0.16674 0.0275,-0.04 0.0744,-0.0786 0.13781,-0.1006 0,0 0.0124,-0.17501 0.1819,-0.15985 0.003,0 0.0152,0.001 0.0193,0.004 0.0551,0.0124 0.0868,0.0551 0.0868,0.0951 0,0 -0.0193,-0.0262 -0.0675,-0.0248"
         style="fill:#000000;fill-opacity:1;fill-rule:nonzero;stroke:none;stroke-width:0.35277778"
         inkscape:connector-curvature="0" />
      <path
         id="path1447"
         d="m 138.04056,171.19683 c 0,0.0675 0.0634,0.10197 0.14607,0.0951 0.011,0.011 0.0152,0.0262 0.011,0.0537 -0.004,0.0482 -0.0551,0.10473 -0.15296,0.10473 -0.10611,0 -0.2136,-0.0703 -0.2136,-0.25218 0,-0.18328 0.10749,-0.25494 0.2136,-0.25494 0.0978,0 0.14883,0.0565 0.15296,0.10611 0.004,0.022 0,0.04 -0.007,0.0579 -0.0827,0 -0.1502,0.0358 -0.1502,0.0896"
         style="fill:#000000;fill-opacity:1;fill-rule:nonzero;stroke:none;stroke-width:0.35277778"
         inkscape:connector-curvature="0" />
      <path
         id="path1449"
         d="m 136.62945,171.16375 c -0.008,0.0841 0.0152,0.15434 0.0276,0.18742 0.0152,0.0344 0.0275,0.10059 -0.0469,0.13229 -0.0593,0.0262 -0.13092,0.0386 -0.25632,0.0317 -0.1819,-0.0138 -0.37896,-0.0717 -0.52503,-0.13505 -0.0661,-0.0289 -0.12954,-0.0634 -0.12954,-0.11575 0,-0.073 0.0593,-0.0827 0.10611,-0.0965 0.0868,-0.0262 0.15021,-0.0703 0.20533,-0.1254 0.0551,-0.051 0.12127,-0.10336 0.20808,-0.10336 0.0868,0 0.14608,0.01 0.24116,0.0496 0.0937,0.04 0.1819,0.0827 0.1695,0.17501"
         style="fill:#000000;fill-opacity:1;fill-rule:nonzero;stroke:none;stroke-width:0.35277778"
         inkscape:connector-curvature="0" />
      <path
         id="path1451"
         d="m 135.87291,171.59646 c 0.0152,-0.0413 0.0469,-0.0717 0.10197,-0.0634 0.0593,0.01 0.0937,0.0193 0.13367,0.0386 0.0234,0.0138 0.0317,0.0358 0.0234,0.0703 -0.007,0.0331 -0.0386,0.14194 -0.22049,0.30868 -0.0662,0.0606 -0.17639,0.13505 -0.27147,0.13918 -0.0909,0.006 -0.12265,-0.0427 -0.12265,-0.0965 v -0.0896 c 0,-0.0344 0.0234,-0.0786 0.0593,-0.0868 0.0868,-0.0193 0.24392,-0.0909 0.29628,-0.22049"
         style="fill:#000000;fill-opacity:1;fill-rule:nonzero;stroke:none;stroke-width:0.35277778"
         inkscape:connector-curvature="0" />
      <path
         id="path1453"
         d="m 136.77552,170.92811 c 0,0 -0.0675,0.0193 -0.11851,0.0841 0,0 -0.12265,-0.10887 -0.34727,-0.14332 -0.21635,-0.0234 -0.25218,0.0289 -0.37896,0.13643 -0.10197,0.0868 -0.19293,0.10335 -0.20395,0.0813 -0.0234,-0.0441 0.0593,-0.0992 0.0951,-0.13367 0.0303,-0.0344 0.003,-0.0661 -0.0524,-0.0372 -0.051,0.0276 -0.16536,0.14194 -0.18466,0.24253 h -0.004 v 0.005 c -0.004,0.0303 -0.0166,0.13643 0.0703,0.20947 0.04,0.0358 0.0758,0.0537 0.13092,0.0744 0.0427,0.0152 0.0634,0.0799 0.011,0.14331 -0.0469,0.0634 -0.13367,0.12954 -0.24391,0.15985 -0.0634,0.0165 -0.0978,0.062 -0.0978,0.13092 v 0.70555 c 0,0.051 -0.0234,0.11438 -0.0992,0.11438 -0.0717,0 -0.12678,0.0179 -0.12678,-0.0468 v -1.11205 c 0,-0.47956 0.27286,-0.67386 0.36794,-0.72347 0.17639,-0.0951 0.4644,-0.14332 0.77997,-0.0772 0.19706,0.0413 0.33072,0.11989 0.40239,0.18603"
         style="fill:#000000;fill-opacity:1;fill-rule:nonzero;stroke:none;stroke-width:0.35277778"
         inkscape:connector-curvature="0" />
      <path
         id="path1455"
         d="m 136.58259,171.74804 c 0,0 -0.15847,-0.003 -0.26045,-0.0909 -0.0317,-0.0303 -0.0124,-0.0717 0.0386,-0.0717 0.0551,0 0.13781,0.011 0.22187,-0.01 v 0.17226"
         style="fill:#000000;fill-opacity:1;fill-rule:nonzero;stroke:none;stroke-width:0.35277778"
         inkscape:connector-curvature="0" />
      <path
         id="path1457"
         d="m 136.55503,171.81832 c -0.008,0.0276 -0.0275,0.0689 -0.0441,0.0744 0,0 -0.04,0.011 -0.0951,0.0138 -0.0345,0 -0.062,-0.003 -0.11713,-0.0413 -0.0358,-0.0276 -0.0909,-0.0827 -0.11162,-0.10059 -0.0193,-0.0234 -0.0303,-0.0441 -0.011,-0.0772 0.0152,-0.0331 0.0469,-0.04 0.091,-0.006 0.0427,0.0331 0.0868,0.0634 0.1378,0.0827 0.0469,0.0152 0.0827,0.0248 0.12678,0.0248 0.0152,0.003 0.0303,0.0138 0.0234,0.0289"
         style="fill:#000000;fill-opacity:1;fill-rule:nonzero;stroke:none;stroke-width:0.35277778"
         inkscape:connector-curvature="0" />
      <path
         id="path1459"
         d="m 136.45995,172.10909 c -0.0868,0.0193 -0.15434,-0.0207 -0.19706,-0.0427 -0.0441,-0.0207 -0.14607,-0.10335 -0.1695,-0.1254 -0.0358,-0.0344 -0.04,-0.0758 -0.0166,-0.10611 0.0234,-0.0289 0.0593,-0.0386 0.0868,-0.0193 0.0276,0.0193 0.0758,0.0689 0.11025,0.0937 0.0441,0.0289 0.0992,0.0537 0.1502,0.0496 0,0 0.0482,-0.004 0.0744,-0.0138 0.0289,-0.01 0.0441,0.006 0.04,0.0482 -0.004,0.0441 -0.0358,0.10611 -0.0785,0.11575"
         style="fill:#000000;fill-opacity:1;fill-rule:nonzero;stroke:none;stroke-width:0.35277778"
         inkscape:connector-curvature="0" />
      <path
         id="path1461"
         d="m 136.35384,172.28272 c -0.0675,0.004 -0.13367,-0.011 -0.21773,-0.0634 -0.0827,-0.0524 -0.22876,-0.15847 -0.18879,-0.23013 0.0193,-0.0303 0.0593,-0.0386 0.0951,-0.01 0.0386,0.0303 0.13367,0.10335 0.18879,0.13505 0.0358,0.0165 0.0909,0.0455 0.13781,0.051 0.0634,0.008 0.0951,0 0.0951,0 0.004,0.0717 -0.0441,0.11162 -0.11025,0.11713"
         style="fill:#000000;fill-opacity:1;fill-rule:nonzero;stroke:none;stroke-width:0.35277778"
         inkscape:connector-curvature="0" />
      <path
         id="path1463"
         d="m 136.34557,172.33509 c 0,0 0.0124,0.0386 -0.0166,0.0717 -0.0303,0.0331 -0.10197,0.0386 -0.19292,0.0193 -0.0909,-0.0193 -0.17777,-0.0634 -0.23978,-0.1254 -0.0634,-0.062 -0.12678,-0.13781 -0.0909,-0.18604 0.0193,-0.0289 0.0703,-0.0372 0.10611,0 0.0317,0.0372 0.16123,0.13643 0.23289,0.17226 0.0744,0.0358 0.12264,0.0524 0.20119,0.0482"
         style="fill:#000000;fill-opacity:1;fill-rule:nonzero;stroke:none;stroke-width:0.35277778"
         inkscape:connector-curvature="0" />
      <path
         id="path1465"
         d="m 136.03414,172.57073 c -0.051,-0.011 -0.19707,-0.062 -0.31144,-0.17363 -0.0744,-0.0717 -0.14194,-0.13505 -0.17363,-0.21498 -0.004,-0.0193 0,-0.0303 0.0358,-0.0248 0.0317,0.006 0.0386,0.003 0.0551,0.006 0.0317,0 0.0634,0 0.0868,0.0331 0.051,0.0717 0.1254,0.14882 0.19292,0.20119 0.0661,0.0537 0.19293,0.091 0.27148,0.0854 0,0 0.0276,0.0289 0,0.062 -0.0234,0.0358 -0.10198,0.0358 -0.1571,0.0262"
         style="fill:#000000;fill-opacity:1;fill-rule:nonzero;stroke:none;stroke-width:0.35277778"
         inkscape:connector-curvature="0" />
      <path
         id="path1467"
         d="m 136.04516,172.64652 c -0.0538,0.0152 -0.16812,0.0207 -0.26321,0 -0.0992,-0.0221 -0.16949,-0.0689 -0.22048,-0.13091 -0.0358,-0.0455 -0.0469,-0.0675 -0.0565,-0.11851 0,0 -0.007,-0.0951 0.0166,-0.10473 0.0193,-0.01 0.04,0.01 0.0717,0.0482 0.0234,0.0331 0.10197,0.12678 0.21221,0.19568 0.0951,0.0593 0.2136,0.0772 0.25632,0.073 0.0427,-0.005 0.0358,0.0221 -0.0166,0.0372"
         style="fill:#000000;fill-opacity:1;fill-rule:nonzero;stroke:none;stroke-width:0.35277778"
         inkscape:connector-curvature="0" />
      <path
         id="path1469"
         d="m 136.97258,171.58681 c 0,0 -0.12264,0.0372 -0.20533,0.11576 0,0 -0.0358,-0.0717 -0.12678,-0.14056 0,0 0.0593,-0.0165 0.0951,-0.0772 0,0 0.0593,0.0841 0.23702,0.10197"
         style="fill:#000000;fill-opacity:1;fill-rule:nonzero;stroke:none;stroke-width:0.35277778"
         inkscape:connector-curvature="0" />
      <path
         id="path1471"
         d="m 136.0176,173.8592 c 0.0441,0.14745 0.0593,0.36518 0.0593,0.65319 0,0.28801 -0.14607,0.82544 -0.35002,0.82544 -0.20533,0 -0.3514,-0.26458 -0.3707,-0.61598 -0.0165,-0.34864 0.0551,-0.52228 0.11438,-0.70142 0.0469,-0.14332 0.0469,-0.22187 0.004,-0.28526 -0.0358,-0.0524 -0.0951,-0.0675 -0.15847,-0.0813 -0.0661,-0.0152 -0.14194,-0.0413 -0.14194,-0.17639 v -0.58842 c 0,-0.12264 0.0717,-0.12264 0.12265,-0.12264 0.051,0 0.12953,0.0317 0.1819,0.0772 0.051,0.0455 0.0937,0.10197 0.0937,0.30041 0,0.19844 -0.0234,0.54432 0.15434,0.54432 0.19706,0 0.24805,0.0248 0.29077,0.17088"
         style="fill:#000000;fill-opacity:1;fill-rule:nonzero;stroke:none;stroke-width:0.35277778"
         inkscape:connector-curvature="0" />
      <path
         id="path1473"
         d="m 134.84351,173.76825 c -0.11438,0.0593 -0.24529,0.0868 -0.39825,0.0868 -0.3073,0 -0.83509,-0.22462 -0.8475,-1.06523 l -0.004,-0.25769 c -0.008,-0.62976 0.0124,-1.47175 -0.16949,-1.83555 -0.0661,-0.13229 -0.16537,-0.15158 -0.27148,-0.113 0,10e-4 -0.004,0.003 -0.008,0.004 -0.004,0 -0.004,0.001 -0.004,0.001 -0.0193,0.007 -0.0427,0.011 -0.0661,0.011 -0.11162,0 -0.20119,-0.0896 -0.20119,-0.19981 0,-0.11162 0.0978,-0.20257 0.22462,-0.20257 0.27974,0 0.40652,0.22737 0.48094,0.40652 0.1695,0.41065 0.16536,1.20027 0.17225,1.9265 l 0.004,0.24529 c 0.004,0.32521 0.0909,0.57188 0.25631,0.73173 0.16537,0.16399 0.35967,0.18191 0.43409,0.18191 0.37482,0 0.58015,-0.33487 0.63114,-0.45751 v 0.45751 c 0,0.0468 -0.0317,0.0579 -0.0593,0.0551 -0.04,-0.007 -0.0992,-0.007 -0.17363,0.0234"
         style="fill:#000000;fill-opacity:1;fill-rule:nonzero;stroke:none;stroke-width:0.35277778"
         inkscape:connector-curvature="0" />
      <path
         id="path1475"
         d="m 136.14851,173.56567 c 0,0.11025 -0.0593,0.12678 -0.12953,0.12678 0.0303,-0.006 0.0579,-0.0551 0.0579,-0.10059 v -0.65181 c 0,-0.10198 -0.0551,-0.12403 -0.0551,-0.12403 v -0.12678 l 0.051,-0.006 c 0,0.0427 0.0124,0.0703 0.0441,0.10198 0.0317,0.0303 0.0317,0.0648 0.0317,0.11575 v 0.66422"
         style="fill:#000000;fill-opacity:1;fill-rule:nonzero;stroke:none;stroke-width:0.35277778"
         inkscape:connector-curvature="0" />
      <path
         id="path1477"
         d="m 137.08695,173.58221 c -0.04,0.0951 -0.11851,0.15021 -0.17776,0.1447 -0.0634,-0.006 -0.0992,-0.0124 -0.15847,-0.062 -0.0593,-0.0524 -0.16813,-0.11025 -0.31144,-0.11025 -0.0896,0 -0.26734,0.01 -0.23978,-0.2067 0.011,-0.0992 0.16536,-0.15986 0.33899,-0.17088 0.18191,-0.0138 0.37483,0.0317 0.46992,0.10197 0.0937,0.0689 0.12127,0.19569 0.0786,0.30317"
         style="fill:#000000;fill-opacity:1;fill-rule:nonzero;stroke:none;stroke-width:0.35277778"
         inkscape:connector-curvature="0" />
      <path
         id="path1479"
         d="m 135.08742,176.44026 c -0.004,0.051 -0.0703,0.13643 -0.19292,0.14883 -0.11438,0.0124 -0.28388,-0.0276 -0.32246,-0.21222 -0.0207,-0.0854 -0.04,-0.22737 -0.0317,-0.44786 0.008,-0.25494 0.011,-0.4079 -0.0124,-0.51676 -0.0234,-0.10749 -0.10611,-0.37207 0.0868,-0.42031 0.0551,-0.0152 0.11024,0.01 0.15021,0.0331 0.0345,0.022 0.0703,0.0317 0.14193,0 0.0675,-0.0317 0.1695,-0.0537 0.29215,-0.0551 -0.0207,-0.0358 -0.0331,-0.0882 -0.0482,-0.15571 -0.0593,-0.2701 -0.051,-0.78962 -0.004,-1.04593 0.0124,-0.051 0.0524,-0.0634 0.11024,-0.0565 0.0675,0.007 0.12678,0.0276 0.15434,0.0634 0.0469,0.0551 0.04,0.0992 -0.0275,0.30868 -0.0703,0.22737 -0.0909,0.43821 -0.0827,0.63114 0.004,0.11437 0.0193,0.19844 0.0358,0.26045 0.011,0.0276 0,0.0661 -0.04,0.0703 -0.04,0.005 -0.0827,0.0138 -0.1378,0.0427 -0.0124,0.01 -0.0593,0.051 -0.10611,0.0813 -0.0565,0.0344 -0.11851,0.0606 -0.18604,0.0634 -0.0593,0.001 -0.0827,-0.007 -0.14193,-0.0234 -0.051,-0.0152 -0.0909,0.003 -0.11438,0.0331 -0.0193,0.0248 -0.0303,0.0689 -0.0234,0.11162 0.004,0.0675 0.0317,0.12264 0.0551,0.15709 0.0593,0.0951 0.0593,0.19293 0.0551,0.29904 -0.008,0.28112 -0.0275,0.48231 0.04,0.51814 0.0551,0.0262 0.10197,-0.0345 0.17363,-0.0386 0.0951,-0.006 0.0827,0.18604 0.11024,0.13229 0.0234,-0.0427 0.0703,-0.0344 0.0662,0.0179"
         style="fill:#000000;fill-opacity:1;fill-rule:nonzero;stroke:none;stroke-width:0.35277778"
         inkscape:connector-curvature="0" />
      <path
         id="path1481"
         d="m 135.94732,175.23999 c 0.004,0.21773 -0.11438,0.30455 -0.25632,0.31833 -0.16261,0.0165 -0.39825,-0.0689 -0.48093,-0.0786 -0.0827,-0.01 -0.10198,0.007 -0.13367,0.04 -0.0358,0.0344 -0.11024,0.12678 -0.11851,0.21084 0,0.0482 0,0.17914 0.0152,0.27561 0.0124,0.0978 0.19293,0.0854 0.19293,0.0854 -0.0744,0.011 -0.11714,0.0772 -0.12954,0.10748 -0.0152,0.0551 0.004,0.14056 0.004,0.14056 -0.0234,-0.062 -0.0551,-0.11162 -0.11851,-0.11575 -0.0276,-0.001 -0.0786,0.0152 -0.12954,0.0413 -0.0593,0.0303 -0.0441,-0.14607 -0.04,-0.27423 0.004,-0.12954 0.0207,-0.24529 -0.004,-0.37069 -0.011,-0.0758 0.11025,-0.0992 0.14332,-0.11989 0.0344,-0.0221 0.0537,-0.0551 0.0661,-0.1006 0.0152,-0.0551 0.0593,-0.10335 0.10198,-0.15021 0.0758,-0.0799 0.15434,-0.13367 0.24804,-0.14331 0.0124,0 0.0648,-0.006 0.091,0.0524 0.0799,0.1571 0.15847,0.18603 0.22875,0.21222 0.0193,0.007 -0.0427,0.0965 -0.10197,0.10197 0.0275,0.0124 0.11851,0.0276 0.20533,0 0.0785,-0.0262 0.11713,-0.11438 0.11713,-0.11438 0.0317,-0.0138 0.0786,-0.0661 0.0992,-0.11851"
         style="fill:#000000;fill-opacity:1;fill-rule:nonzero;stroke:none;stroke-width:0.35277778"
         inkscape:connector-curvature="0" />
      <path
         id="path1483"
         d="m 135.54907,176.24458 c 0,0 -0.04,0.0276 -0.0469,0.0909 -0.004,0.0524 0,0.10473 -0.008,0.10887 -0.0124,0.001 -0.0124,0 -0.0193,-0.0496 -0.0124,-0.0648 -0.0358,-0.0992 -0.0717,-0.13367 -0.0358,-0.0317 -0.12127,-0.0413 -0.10611,-0.001 0.0166,0.0386 0.0193,0.0827 0.0166,0.12264 -0.008,0.062 -0.0524,0.11438 -0.0648,0.0675 -0.0152,-0.0469 -0.0744,-0.11437 -0.1571,-0.11851 0,0 -0.0276,-0.0703 0.0124,-0.13229 0.0469,-0.0813 0.20119,-0.0882 0.2632,-0.0786 0.0551,0.007 0.16261,0.0524 0.18191,0.12402"
         style="fill:#000000;fill-opacity:1;fill-rule:nonzero;stroke:none;stroke-width:0.35277778"
         inkscape:connector-curvature="0" />
      <path
         id="path1485"
         d="m 135.70341,176.43613 c 0.011,0.0537 -0.0207,0.13918 -0.0565,0.16674 -0.0386,0.0303 -0.0427,0 -0.0345,-0.0303 0.011,-0.0345 -0.0193,-0.0634 -0.0358,-0.0744 -0.0124,-0.008 -0.0275,-0.0138 -0.0275,-0.0565 0,-0.0441 0.008,-0.14883 0.051,-0.14883 0.051,0 0.0951,0.0909 0.10335,0.14332"
         style="fill:#000000;fill-opacity:1;fill-rule:nonzero;stroke:none;stroke-width:0.35277778"
         inkscape:connector-curvature="0" />
      <path
         id="path1487"
         d="m 135.4154,176.38376 c 0.0152,0.0469 0.0275,0.12403 0.0193,0.17226 -0.0124,0.0482 -0.0193,0.062 -0.0358,0.0193 -0.0152,-0.0427 -0.0579,-0.073 -0.0427,-0.11024 0.0152,-0.0317 0.0193,-0.0937 0,-0.14332 0.004,-0.0289 0.0427,0.0289 0.0593,0.062"
         style="fill:#000000;fill-opacity:1;fill-rule:nonzero;stroke:none;stroke-width:0.35277778"
         inkscape:connector-curvature="0" />
      <path
         id="path1489"
         d="m 135.21007,176.54362 c 0,0.0331 -0.004,0.051 -0.0234,0.0703 -0.0124,0.0152 -0.0275,0.0152 -0.0358,-0.0248 -0.004,-0.0234 -0.0124,-0.0661 -0.0317,-0.0799 0,0 0.0276,-0.0331 0.0124,-0.11576 0.051,0.0358 0.0827,0.10473 0.0786,0.15021"
         style="fill:#000000;fill-opacity:1;fill-rule:nonzero;stroke:none;stroke-width:0.35277778"
         inkscape:connector-curvature="0" />
      <path
         id="path1491"
         d="m 135.8798,169.18076 -0.011,-0.2577 h 0.11024 l -0.0124,0.2577 z m 0,0"
         style="fill:#000000;fill-opacity:1;fill-rule:nonzero;stroke:none;stroke-width:0.35277778"
         inkscape:connector-curvature="0" />
      <path
         id="path1493"
         d="m 136.12509,169.22623 -0.0827,-0.0344 0.0854,-0.23564 0.004,-0.008 0.0992,0.0427 z m 0,0"
         style="fill:#000000;fill-opacity:1;fill-rule:nonzero;stroke:none;stroke-width:0.35277778"
         inkscape:connector-curvature="0" />
      <path
         id="path1495"
         d="m 136.1871,169.26344 0.16261,-0.18879 0.008,-0.007 0.0785,0.0758 -0.18604,0.1819 z m 0,0"
         style="fill:#000000;fill-opacity:1;fill-rule:nonzero;stroke:none;stroke-width:0.35277778"
         inkscape:connector-curvature="0" />
      <path
         id="path1497"
         d="m 136.29045,169.37644 0.21635,-0.12816 0.004,-0.004 0.0551,0.0965 -0.23289,0.11438 z m 0,0"
         style="fill:#000000;fill-opacity:1;fill-rule:nonzero;stroke:none;stroke-width:0.35277778"
         inkscape:connector-curvature="0" />
      <path
         id="path1499"
         d="m 136.34557,169.517 0.24805,-0.0441 0.008,-0.001 0.0152,0.10886 -0.25494,0.0262 z m 0,0"
         style="fill:#000000;fill-opacity:1;fill-rule:nonzero;stroke:none;stroke-width:0.35277778"
         inkscape:connector-curvature="0" />
      <path
         id="path1501"
         d="m 136.36073,169.69201 h 0.26045 v 0.10335 h -0.26045 z m 0,0"
         style="fill:#000000;fill-opacity:1;fill-rule:nonzero;stroke:none;stroke-width:0.35277778"
         inkscape:connector-curvature="0" />
      <path
         id="path1503"
         d="m 135.72683,169.22623 -0.11024,-0.23564 0.0937,-0.0386 0.008,-0.004 0.0868,0.24391 z m 0,0"
         style="fill:#000000;fill-opacity:1;fill-rule:nonzero;stroke:none;stroke-width:0.35277778"
         inkscape:connector-curvature="0" />
      <path
         id="path1505"
         d="m 135.59592,169.32545 -0.18466,-0.18741 0.0744,-0.0703 0.004,-0.004 0.17363,0.19981 z m 0,0"
         style="fill:#000000;fill-opacity:1;fill-rule:nonzero;stroke:none;stroke-width:0.35277778"
         inkscape:connector-curvature="0" />
      <path
         id="path1507"
         d="m 135.51737,169.45499 -0.23978,-0.11714 0.051,-0.0909 0.003,-0.006 0.22593,0.13505 z m 0,0"
         style="fill:#000000;fill-opacity:1;fill-rule:nonzero;stroke:none;stroke-width:0.35277778"
         inkscape:connector-curvature="0" />
      <path
         id="path1509"
         d="m 135.48981,169.60519 -0.26872,-0.0248 0.0166,-0.10059 v -0.008 l 0.26458,0.0455 z m 0,0"
         style="fill:#000000;fill-opacity:1;fill-rule:nonzero;stroke:none;stroke-width:0.35277778"
         inkscape:connector-curvature="0" />
      <path
         id="path1511"
         d="m 135.48568,169.79536 h -0.27148 v -0.10335 h 0.27148 z m 0,0"
         style="fill:#000000;fill-opacity:1;fill-rule:nonzero;stroke:none;stroke-width:0.35277778"
         inkscape:connector-curvature="0" />
      <path
         id="path1513"
         d="m 136.16367,169.91112 c 0,0.14469 -0.0703,0.16674 -0.12127,0.16674 -0.051,0 -0.0951,-0.022 -0.0951,-0.0882 v -0.13505 c 0,-0.0441 0.0317,-0.0854 0.0703,-0.10611 0.0358,-0.0152 0.0565,-0.0551 0.0593,-0.0937 0,-0.0248 0.008,-0.0262 0.0207,-0.011 0.0386,0.0482 0.0661,0.14194 0.0661,0.26734"
         style="fill:#000000;fill-opacity:1;fill-rule:nonzero;stroke:none;stroke-width:0.35277778"
         inkscape:connector-curvature="0" />
      <path
         id="path1515"
         d="m 136.20364,169.86013 c 0,-0.13091 -0.0551,-0.21911 -0.0758,-0.2384 -0.0193,-0.0193 -0.003,-0.0276 0.0166,-0.0193 0.0593,0.0221 0.1185,0 0.1502,-0.0179 0,0 0.0317,-0.0317 0.0317,0.0937 0,0.14883 -0.0717,0.23013 -0.0992,0.24253 -0.007,0.005 -0.0234,0.0138 -0.0234,-0.007 v -0.0537"
         style="fill:#000000;fill-opacity:1;fill-rule:nonzero;stroke:none;stroke-width:0.35277778"
         inkscape:connector-curvature="0" />
      <path
         id="path1517"
         d="m 135.80538,170.07786 c -0.0469,0 -0.11851,-0.022 -0.11851,-0.16674 0,-0.12403 0.0234,-0.21911 0.0634,-0.26734 0.0124,-0.0152 0.0193,-0.0138 0.0193,0.011 0.004,0.0372 0.0234,0.0786 0.0593,0.0937 0.04,0.0207 0.0717,0.062 0.0717,0.10611 v 0.13504 c 0,0.0662 -0.0441,0.0882 -0.0951,0.0882"
         style="fill:#000000;fill-opacity:1;fill-rule:nonzero;stroke:none;stroke-width:0.35277778"
         inkscape:connector-curvature="0" />
      <path
         id="path1519"
         d="m 135.79711,169.6548 v -0.15985 c 0,-0.01 -0.007,-0.0179 -0.0152,-0.0179 h -0.20946 c -0.008,0 -0.008,-0.011 -0.008,-0.0165 0.0565,-0.14469 0.19706,-0.24529 0.35967,-0.24529 0.16123,0 0.3073,0.1006 0.35829,0.24529 0,0.006 0,0.0165 -0.008,0.0165 h -0.20808 c -0.008,0 -0.0166,0.008 -0.0166,0.0179 v 0.15985 c 0,0.007 -0.007,0.0165 -0.0152,0.0165 h -0.21635 c -0.0124,0 -0.0207,-0.01 -0.0207,-0.0165"
         style="fill:#000000;fill-opacity:1;fill-rule:nonzero;stroke:none;stroke-width:0.35277778"
         inkscape:connector-curvature="0" />
      <path
         id="path1521"
         d="m 135.71857,169.62173 c -0.0193,0.0193 -0.0717,0.10749 -0.0717,0.2384 v 0.0537 c -0.003,0.0207 -0.0152,0.0138 -0.0275,0.007 -0.0262,-0.0124 -0.0978,-0.0937 -0.0978,-0.24253 0,-0.12678 0.0317,-0.0937 0.0317,-0.0937 0.0344,0.0179 0.0937,0.04 0.1502,0.0179 0.0234,-0.008 0.0344,0 0.0152,0.0193"
         style="fill:#000000;fill-opacity:1;fill-rule:nonzero;stroke:none;stroke-width:0.35277778"
         inkscape:connector-curvature="0" />
      <path
         id="path1523"
         d="m 138.20179,171.24919 c -0.007,0.003 -0.0152,0.004 -0.0193,0.004 -0.0124,0.001 -0.0951,0.008 -0.0951,-0.0524 0,-0.0469 0.0634,-0.051 0.0951,-0.051 0.004,0 0.0124,0 0.0152,0.001 0.0289,0.004 0.0799,0.0193 0.13505,0.0496 -0.0524,0.0303 -0.10336,0.0441 -0.13092,0.0482"
         style="fill:#000000;fill-opacity:1;fill-rule:nonzero;stroke:none;stroke-width:0.35277778"
         inkscape:connector-curvature="0" />
      <path
         id="path1525"
         d="m 135.90735,172.85599 v 0.0675 c 0,0.003 -0.003,0.006 -0.007,0.006 h -0.0868 c -0.004,0 -0.004,-0.003 -0.004,-0.006 v -0.0896 c 0,-0.004 0,-0.007 0.004,-0.007 h 0.0868 c 0.004,0 0.007,0.003 0.007,0.007 v 0.0262 h 0.0551 v -0.13505 c 0,0 -0.2756,0.0593 -0.44097,-0.14745 -0.008,-0.01 -0.0193,0 -0.0193,0.0207 0,0.0221 0.007,0.12402 -0.0799,0.14056 0,0 0.0909,0.0331 0.13918,0.0965 0.0386,0.051 0.0703,0.13918 0.0703,0.30592 v 0.21497 c 0,0.13367 0.0207,0.26734 0.10335,0.26734 0.18053,0 0.22738,0.04 0.22738,0.04 0.04,0 0.0482,-0.0689 0.0482,-0.11024 v -0.0841 h -0.10335 v 0.0689 c 0,0.003 -0.003,0.006 -0.007,0.006 h -0.0868 c -0.004,0 -0.004,-0.003 -0.004,-0.006 v -0.0909 c 0,-0.003 0,-0.005 0.004,-0.005 h 0.0868 c 0.004,0 0.007,0.003 0.007,0.005 v 0.0262 l 0.10335,10e-4 v -0.19155 h -0.10335 v 0.0441 c 0,0.003 -0.003,0.006 -0.007,0.006 h -0.0868 c -0.004,0 -0.004,-0.003 -0.004,-0.006 v -0.0909 c 0,-0.003 0,-0.007 0.004,-0.007 h 0.0868 c 0.004,0 0.007,0.004 0.007,0.007 v 0.0565 h 0.10335 v -0.2081 h -0.10335 v 0.0441 c 0,0.004 -0.003,0.007 -0.007,0.007 h -0.0868 c -0.004,0 -0.004,-0.003 -0.004,-0.007 v -0.0896 c 0,-0.003 0,-0.006 0.004,-0.006 h 0.0868 c 0.004,0 0.007,0.003 0.007,0.006 v 0.0496 h 0.10335 v -0.14331 c 0,-0.0344 -0.0193,-0.0606 -0.0358,-0.0675 l -0.0124,-0.007 v -0.0152 h -0.0551"
         style="fill:#000000;fill-opacity:1;fill-rule:nonzero;stroke:none;stroke-width:0.35277778"
         inkscape:connector-curvature="0" />
      <path
         id="path1527"
         d="m 134.94962,175.29511 c -0.0193,0.0207 -0.051,0.0868 -0.062,0.11714 -0.0124,0.0331 -0.0441,0.0455 -0.0634,0.051 -0.0248,0.007 -0.04,0.0152 -0.0717,0.0372 -0.0193,0.0138 -0.0427,0.0138 -0.0551,-0.003 -0.0234,-0.0331 -0.0275,-0.0496 -0.0427,-0.0882 -0.0124,-0.0317 -0.0165,-0.0978 0,-0.11852 0.011,-0.0221 0.051,-0.0303 0.11024,-0.011 0.0593,0.0165 0.11851,0.0152 0.17639,-0.007 0.0207,-0.006 0.0248,0 0.008,0.0221"
         style="fill:#000000;fill-opacity:1;fill-rule:nonzero;stroke:none;stroke-width:0.35277778"
         inkscape:connector-curvature="0" />
      <path
         id="path1529"
         d="m 137.03872,173.997 c -0.0193,0.1006 -0.0193,0.19982 0.008,0.24667 0.0317,0.0565 0.10336,0.0758 0.13368,0.0785 0.0358,0.003 0.13918,0.006 0.23702,0.01 0.29214,0.0138 0.43821,0.12402 0.40514,0.15985 -0.011,0.0124 -0.0345,0.0221 -0.0896,0.006 -0.0441,-0.0124 -0.1943,-0.0799 -0.36656,-0.0758 -0.0951,10e-4 -0.24116,0.0441 -0.32797,0.0758 -0.0868,0.0331 -0.0744,-0.0482 -0.0744,-0.0703 v -0.14883 c -0.0124,-0.38447 -0.15434,-0.52089 -0.15434,-0.52089 0.0207,0.0165 0.11162,0.0276 0.12677,0.0234 0.0827,-0.0207 0.14194,-0.0634 0.1695,-0.12678 -0.004,0.0923 -0.0482,0.2632 -0.0675,0.34313"
         style="fill:#000000;fill-opacity:1;fill-rule:nonzero;stroke:none;stroke-width:0.35277778"
         inkscape:connector-curvature="0" />
      <path
         id="path1531"
         d="m 140.99369,169.90698 h -0.26044 v 0.10473 h 0.26044 z m 0,0"
         style="fill:#000000;fill-opacity:1;fill-rule:nonzero;stroke:none;stroke-width:0.35277778"
         inkscape:connector-curvature="0" />
      <path
         id="path1533"
         d="m 140.73325,170.12058 v 0.10473 h 0.2949 v -0.10473 z m 0,0"
         style="fill:#000000;fill-opacity:1;fill-rule:nonzero;stroke:none;stroke-width:0.35277778"
         inkscape:connector-curvature="0" />
      <path
         id="path1535"
         d="m 140.73325,170.54777 v 0.10473 h 1.40697 v -0.10473 z m 0,0"
         style="fill:#000000;fill-opacity:1;fill-rule:nonzero;stroke:none;stroke-width:0.35277778"
         inkscape:connector-curvature="0" />
      <path
         id="path1537"
         d="m 141.04882,170.33418 h -0.31557 v 0.10473 h 0.37896 l -0.0634,-0.10198 z m 0,0"
         style="fill:#000000;fill-opacity:1;fill-rule:nonzero;stroke:none;stroke-width:0.35277778"
         inkscape:connector-curvature="0" />
      <path
         id="path1539"
         d="m 141.86875,169.90698 v 0.10473 h 0.27147 v -0.10473 z m 0,0"
         style="fill:#000000;fill-opacity:1;fill-rule:nonzero;stroke:none;stroke-width:0.35277778"
         inkscape:connector-curvature="0" />
      <path
         id="path1541"
         d="m 142.14022,170.12058 h -0.3073 v 0.10473 h 0.3073 z m 0,0"
         style="fill:#000000;fill-opacity:1;fill-rule:nonzero;stroke:none;stroke-width:0.35277778"
         inkscape:connector-curvature="0" />
      <path
         id="path1543"
         d="m 142.14022,170.76275 h -0.35002 l 0.0234,0.01 c 0,0.001 0.0744,0.0386 0.12953,0.0951 h 0.19706 v -0.10474"
         style="fill:#000000;fill-opacity:1;fill-rule:nonzero;stroke:none;stroke-width:0.35277778"
         inkscape:connector-curvature="0" />
      <path
         id="path1545"
         d="m 142.13195,171.17891 v -0.19568 h -0.0937 c 0.0427,0.0579 0.0744,0.11851 0.0937,0.19568"
         style="fill:#000000;fill-opacity:1;fill-rule:nonzero;stroke:none;stroke-width:0.35277778"
         inkscape:connector-curvature="0" />
      <path
         id="path1547"
         d="m 141.81363,170.33418 -0.0675,0.10473 h 0.39412 v -0.10473 z m 0,0"
         style="fill:#000000;fill-opacity:1;fill-rule:nonzero;stroke:none;stroke-width:0.35277778"
         inkscape:connector-curvature="0" />
      <path
         id="path1549"
         d="m 141.30099,170.38654 v -0.23013 l -0.0593,-0.0482 -0.0358,0.0386 0.0276,0.22324 z m 0,0"
         style="fill:#000000;fill-opacity:1;fill-rule:nonzero;stroke:none;stroke-width:0.35277778"
         inkscape:connector-curvature="0" />
      <path
         id="path1551"
         d="m 141.43053,170.49265 c 0.0551,-0.0372 0.0868,-0.0923 0.0868,-0.16123 v -0.21084 h -0.17363 v 0.21084 c 0,0.0689 0.0317,0.12402 0.0868,0.16123"
         style="fill:#000000;fill-opacity:1;fill-rule:nonzero;stroke:none;stroke-width:0.35277778"
         inkscape:connector-curvature="0" />
      <path
         id="path1553"
         d="m 141.55731,170.38654 v -0.23013 l 0.0593,-0.0482 0.0344,0.0386 -0.0234,0.22324 z m 0,0"
         style="fill:#000000;fill-opacity:1;fill-rule:nonzero;stroke:none;stroke-width:0.35277778"
         inkscape:connector-curvature="0" />
      <path
         id="path1555"
         d="m 141.65515,171.26435 c 0,-0.073 -0.0593,-0.0827 -0.10611,-0.0965 -0.0868,-0.0262 -0.1502,-0.0703 -0.20532,-0.12402 -0.0551,-0.0524 -0.12265,-0.10473 -0.20809,-0.10473 -0.0827,0 -0.14607,0.01 -0.24115,0.051 -0.0937,0.0386 -0.18053,0.0827 -0.17364,0.17363 0.0124,0.0841 -0.011,0.15434 -0.0234,0.18741 -0.0152,0.0344 -0.0275,0.1006 0.0482,0.1323 0.0579,0.0262 0.12954,0.0386 0.25494,0.0317 0.1819,-0.0124 0.37896,-0.0717 0.52503,-0.13643 0.0675,-0.0276 0.12954,-0.062 0.12954,-0.11438"
         style="fill:#000000;fill-opacity:1;fill-rule:nonzero;stroke:none;stroke-width:0.35277778"
         inkscape:connector-curvature="0" />
      <path
         id="path1557"
         d="m 141.24587,171.57165 c -0.0234,0.0138 -0.0317,0.0358 -0.0234,0.0703 0.011,0.0344 0.0386,0.14332 0.22049,0.30868 0.0675,0.0606 0.17639,0.13505 0.26734,0.13919 0.0951,0.006 0.12678,-0.0427 0.12678,-0.0965 v -0.0896 c 0,-0.0345 -0.0234,-0.0772 -0.0634,-0.0868 -0.0868,-0.0193 -0.23978,-0.0909 -0.29215,-0.22049 -0.0193,-0.04 -0.0469,-0.0717 -0.10197,-0.0634 -0.0593,0.01 -0.0951,0.0193 -0.13367,0.0386"
         style="fill:#000000;fill-opacity:1;fill-rule:nonzero;stroke:none;stroke-width:0.35277778"
         inkscape:connector-curvature="0" />
      <path
         id="path1559"
         d="m 141.04468,170.86885 c 0.21635,-0.0234 0.25218,0.0289 0.37758,0.13643 0.10336,0.0868 0.19431,0.10335 0.2012,0.0813 0.0289,-0.0441 -0.0551,-0.0992 -0.0896,-0.13367 -0.0317,-0.0344 -0.006,-0.0661 0.0468,-0.0372 0.0551,0.0276 0.1695,0.14194 0.18879,0.24253 h 0.004 v 0.005 c 0.004,0.0303 0.0152,0.13643 -0.0717,0.20947 -0.0427,0.0358 -0.0785,0.0524 -0.12953,0.0744 -0.0386,0.0165 -0.0634,0.0799 -0.0152,0.14331 0.051,0.0634 0.1378,0.13092 0.24804,0.15986 0.0634,0.0165 0.0978,0.062 0.0978,0.13091 v 0.70555 c 0,0.051 0.0234,0.11438 0.0992,0.11438 0.0717,0 0.1254,0.0179 0.1254,-0.0468 v -1.11205 c 0,-0.47956 -0.27147,-0.67386 -0.36656,-0.72347 -0.17639,-0.0951 -0.46439,-0.14332 -0.77997,-0.0772 -0.19706,0.0413 -0.33073,0.11989 -0.40238,0.18603 0,0 0.0675,0.0193 0.11438,0.0841 0,0 0.12677,-0.10886 0.35139,-0.14331"
         style="fill:#000000;fill-opacity:1;fill-rule:nonzero;stroke:none;stroke-width:0.35277778"
         inkscape:connector-curvature="0" />
      <path
         id="path1561"
         d="m 140.77183,171.74804 c 0,0 0.15847,-0.003 0.25632,-0.0909 0.0358,-0.0303 0.0166,-0.0717 -0.0345,-0.0717 -0.0551,0 -0.13918,0.011 -0.22187,-0.01 v 0.17226"
         style="fill:#000000;fill-opacity:1;fill-rule:nonzero;stroke:none;stroke-width:0.35277778"
         inkscape:connector-curvature="0" />
      <path
         id="path1563"
         d="m 140.79664,171.81832 c 0.011,0.0276 0.0317,0.0689 0.0469,0.0744 0,0 0.0386,0.011 0.0909,0.0138 0.0345,0 0.0661,-0.003 0.12127,-0.0413 0.0358,-0.0276 0.0909,-0.0827 0.11024,-0.10059 0.0207,-0.0234 0.0317,-0.0441 0.0124,-0.0772 -0.0165,-0.0331 -0.051,-0.04 -0.0909,-0.006 -0.0427,0.0331 -0.0868,0.0634 -0.13781,0.0827 -0.0469,0.0152 -0.0827,0.0248 -0.12678,0.0248 -0.0152,0.003 -0.0303,0.0138 -0.0262,0.0289"
         style="fill:#000000;fill-opacity:1;fill-rule:nonzero;stroke:none;stroke-width:0.35277778"
         inkscape:connector-curvature="0" />
      <path
         id="path1565"
         d="m 140.89448,172.10909 c 0.0868,0.0193 0.15709,-0.0207 0.19705,-0.0427 0.0441,-0.0207 0.14608,-0.10335 0.1695,-0.1254 0.0358,-0.0344 0.04,-0.0758 0.0166,-0.10611 -0.0234,-0.0289 -0.0593,-0.0386 -0.0868,-0.0193 -0.0275,0.0193 -0.0758,0.0689 -0.11024,0.0937 -0.0441,0.0289 -0.0992,0.0537 -0.1502,0.0496 0,0 -0.0482,-0.004 -0.0744,-0.0138 -0.0289,-0.01 -0.0441,0.006 -0.04,0.0482 0.004,0.0441 0.0358,0.10611 0.0786,0.11575"
         style="fill:#000000;fill-opacity:1;fill-rule:nonzero;stroke:none;stroke-width:0.35277778"
         inkscape:connector-curvature="0" />
      <path
         id="path1567"
         d="m 140.98543,172.16421 c 0.0469,-0.004 0.10197,-0.0317 0.1378,-0.0496 0.0551,-0.0303 0.15021,-0.10473 0.19017,-0.13505 0.0345,-0.0289 0.0744,-0.0207 0.0937,0.01 0.0441,0.0717 -0.10611,0.17777 -0.18879,0.23014 -0.0827,0.0524 -0.15021,0.0675 -0.21635,0.062 -0.0675,-0.004 -0.11438,-0.0441 -0.11163,-0.11714 0,0 0.0317,0.01 0.0951,0"
         style="fill:#000000;fill-opacity:1;fill-rule:nonzero;stroke:none;stroke-width:0.35277778"
         inkscape:connector-curvature="0" />
      <path
         id="path1569"
         d="m 141.54904,172.1146 c -0.0193,-0.0289 -0.0744,-0.0372 -0.1061,0 -0.0317,0.0372 -0.16261,0.13643 -0.23703,0.17226 -0.0717,0.0358 -0.11851,0.0524 -0.19706,0.0482 0,0 -0.011,0.0386 0.0193,0.0717 0.0275,0.0331 0.0992,0.0386 0.19017,0.0193 0.0896,-0.0193 0.17777,-0.0634 0.23978,-0.12541 0.0634,-0.062 0.12265,-0.13918 0.0909,-0.18603"
         style="fill:#000000;fill-opacity:1;fill-rule:nonzero;stroke:none;stroke-width:0.35277778"
         inkscape:connector-curvature="0" />
      <path
         id="path1571"
         d="m 141.80536,172.18212 c 0.004,-0.0207 0,-0.0303 -0.0358,-0.0248 -0.0358,0.004 -0.04,0.003 -0.0593,0.004 -0.0276,0.001 -0.0579,0 -0.0868,0.0344 -0.0469,0.0703 -0.12127,0.14882 -0.18879,0.20119 -0.0675,0.0537 -0.19292,0.0909 -0.27147,0.0868 0,0 -0.0275,0.0276 0,0.0606 0.0234,0.0358 0.10197,0.0358 0.15709,0.0262 0.051,-0.011 0.19706,-0.062 0.31144,-0.17363 0.0744,-0.0717 0.14194,-0.13505 0.17363,-0.21498"
         style="fill:#000000;fill-opacity:1;fill-rule:nonzero;stroke:none;stroke-width:0.35277778"
         inkscape:connector-curvature="0" />
      <path
         id="path1573"
         d="m 141.83292,172.29237 c -0.0234,-0.01 -0.0441,0.01 -0.0717,0.0482 -0.0262,0.0331 -0.10197,0.12816 -0.21222,0.19568 -0.0951,0.0593 -0.21221,0.0772 -0.25631,0.073 -0.0427,-0.005 -0.0358,0.0221 0.0166,0.0372 0.051,0.0152 0.16812,0.0207 0.26321,0 0.0951,-0.0221 0.16949,-0.0689 0.21635,-0.13091 0.0358,-0.0455 0.0524,-0.0689 0.0593,-0.11852 0,0 0.008,-0.0951 -0.0152,-0.10473"
         style="fill:#000000;fill-opacity:1;fill-rule:nonzero;stroke:none;stroke-width:0.35277778"
         inkscape:connector-curvature="0" />
      <path
         id="path1575"
         d="m 140.58718,171.70257 c 0,0 0.0358,-0.0717 0.1254,-0.14056 0,0 -0.0579,-0.0165 -0.0937,-0.0772 0,0 -0.0593,0.0841 -0.23702,0.10059 0,0 0.12264,0.0386 0.20532,0.11714"
         style="fill:#000000;fill-opacity:1;fill-rule:nonzero;stroke:none;stroke-width:0.35277778"
         inkscape:connector-curvature="0" />
      <path
         id="path1577"
         d="m 142.18019,172.88906 c 0,-0.12403 -0.0717,-0.12403 -0.12265,-0.12403 -0.051,0 -0.12953,0.0331 -0.1819,0.0786 -0.051,0.0455 -0.0937,0.10198 -0.0937,0.30042 0,0.19843 0.0234,0.54432 -0.15434,0.54432 -0.2012,0 -0.24805,0.0248 -0.29077,0.17088 -0.0441,0.14745 -0.0593,0.36518 -0.0593,0.65319 0,0.28801 0.14469,0.82544 0.35002,0.82544 0.20533,0 0.3514,-0.2632 0.36656,-0.61598 0.0165,-0.34864 -0.051,-0.52228 -0.11024,-0.70142 -0.0468,-0.14332 -0.0468,-0.22186 -0.004,-0.28525 0.0358,-0.0524 0.0951,-0.0675 0.15847,-0.0813 0.0662,-0.0152 0.14194,-0.0413 0.14194,-0.17639 v -0.58843"
         style="fill:#000000;fill-opacity:1;fill-rule:nonzero;stroke:none;stroke-width:0.35277778"
         inkscape:connector-curvature="0" />
      <g
         transform="matrix(0.35277777,0,0,0.35277777,-56.767194,158.44033)"
         id="g1581"
         clip-path="url(#clip22)"
         style="clip-rule:nonzero;fill:#000000">
        <path
           id="path1579"
           d="m 564.22266,43.226563 v -1.296875 c 0.14453,0.351562 0.72656,1.296875 1.78906,1.296875 0.21094,0 0.76172,-0.05078 1.23047,-0.515625 0.46875,-0.453125 0.71484,-1.152344 0.72265,-2.074219 l 0.0117,-0.695313 c 0.0117,-2.058593 0.0117,-4.296875 0.49219,-5.460937 0.21484,-0.503906 0.57031,-1.152344 1.36328,-1.152344 0.35938,0 0.63672,0.257813 0.63672,0.574219 0,0.3125 -0.25391,0.566406 -0.57031,0.566406 -0.0664,0 -0.13282,-0.01172 -0.1875,-0.03125 -0.0117,0 -0.0117,-0.0039 -0.0117,-0.0039 -0.0117,-0.0039 -0.0234,-0.0078 -0.0234,-0.01172 -0.30078,-0.113281 -0.58203,-0.05469 -0.76953,0.320313 -0.51563,1.03125 -0.45703,3.417968 -0.48047,5.203125 l -0.0117,0.730468 c -0.0351,2.382813 -1.53125,3.023438 -2.40234,3.023438 -0.4375,0 -0.80469,-0.08203 -1.12891,-0.25 -0.21094,-0.08984 -0.3789,-0.08984 -0.49219,-0.06641 -0.0781,0.0078 -0.16796,-0.02344 -0.16796,-0.15625"
           style="fill:#000000;fill-opacity:1;fill-rule:nonzero;stroke:none"
           inkscape:connector-curvature="0" />
      </g>
      <path
         id="path1583"
         d="m 141.33683,173.69245 c -0.0717,0 -0.13092,-0.0165 -0.13092,-0.12678 v -0.66421 c 0,-0.051 0,-0.0841 0.0317,-0.11575 0.0317,-0.0317 0.0427,-0.0579 0.0427,-0.10198 l 0.0524,0.006 v 0.12816 c 0,0 -0.0551,0.0207 -0.0551,0.12127 v 0.65319 c 0,0.0469 0.0275,0.0951 0.0593,0.10059"
         style="fill:#000000;fill-opacity:1;fill-rule:nonzero;stroke:none;stroke-width:0.35277778"
         inkscape:connector-curvature="0" />
      <path
         id="path1585"
         d="m 141.15492,173.34794 c -0.0124,-0.0992 -0.16536,-0.15985 -0.33899,-0.17087 -0.1819,-0.0138 -0.37483,0.0317 -0.46853,0.10059 -0.0992,0.0703 -0.12265,0.19706 -0.0799,0.30455 0.04,0.0951 0.11851,0.15021 0.17776,0.1447 0.0634,-0.006 0.0992,-0.0124 0.15848,-0.0634 0.0579,-0.051 0.16812,-0.10887 0.31006,-0.10887 0.0909,0 0.26871,0.01 0.24115,-0.20671"
         style="fill:#000000;fill-opacity:1;fill-rule:nonzero;stroke:none;stroke-width:0.35277778"
         inkscape:connector-curvature="0" />
      <path
         id="path1587"
         d="m 142.05754,175.04569 c 0.04,0.005 0.0827,0.0138 0.1378,0.0427 0.0124,0.01 0.0593,0.051 0.10611,0.0813 0.0565,0.0358 0.11851,0.0606 0.18604,0.0634 0.0592,0.001 0.0785,-0.008 0.14194,-0.0234 0.051,-0.0152 0.0909,0.003 0.11437,0.0331 0.0193,0.0248 0.0317,0.0689 0.0234,0.11162 -0.008,0.0675 -0.0317,0.12265 -0.0551,0.1571 -0.0592,0.0951 -0.0592,0.1943 -0.0551,0.29765 0.008,0.2825 0.0275,0.48369 -0.04,0.51952 -0.0551,0.0262 -0.1061,-0.0345 -0.17776,-0.0386 -0.0896,-0.006 -0.0785,0.18604 -0.10611,0.1323 -0.0234,-0.0427 -0.0703,-0.0331 -0.0661,0.0179 0.003,0.051 0.0703,0.13642 0.19293,0.14882 0.11024,0.0138 0.28801,-0.0276 0.32383,-0.21221 0.0193,-0.0854 0.0386,-0.22738 0.0303,-0.44787 -0.004,-0.25493 -0.011,-0.4079 0.0124,-0.51676 0.0193,-0.10749 0.10611,-0.37207 -0.0868,-0.42168 -0.0551,-0.0138 -0.11024,0.011 -0.1502,0.0345 -0.0358,0.0234 -0.0703,0.0317 -0.14194,0 -0.0662,-0.0317 -0.17363,-0.0537 -0.29076,-0.0537 0.0193,-0.0372 0.0303,-0.0896 0.0469,-0.1571 0.0593,-0.27009 0.051,-0.78961 0.004,-1.04593 -0.0124,-0.051 -0.051,-0.0634 -0.10749,-0.0579 -0.0703,0.01 -0.12954,0.0289 -0.1571,0.0648 -0.0469,0.0551 -0.0386,0.0992 0.0275,0.30868 0.0717,0.22738 0.0909,0.43822 0.0827,0.63114 -0.004,0.11438 -0.0193,0.19844 -0.0345,0.26045 -0.008,0.0276 0,0.0661 0.0386,0.0703"
         style="fill:#000000;fill-opacity:1;fill-rule:nonzero;stroke:none;stroke-width:0.35277778"
         inkscape:connector-curvature="0" />
      <path
         id="path1589"
         d="m 142.5619,176.26525 c -0.051,-0.0262 -0.10197,-0.0427 -0.12953,-0.04 -0.0634,0.003 -0.0951,0.0524 -0.11851,0.11438 0,0 0.0234,-0.0841 0.004,-0.14056 -0.0124,-0.0303 -0.0551,-0.0951 -0.13092,-0.10611 0,0 0.17777,0.011 0.1943,-0.0868 0.0152,-0.0965 0.0152,-0.22738 0.0152,-0.27561 -0.008,-0.0841 -0.0827,-0.17639 -0.1185,-0.21084 -0.0317,-0.0331 -0.051,-0.0496 -0.13368,-0.04 -0.0827,0.01 -0.3197,0.0951 -0.48093,0.0786 -0.14194,-0.0138 -0.26045,-0.10059 -0.25632,-0.31832 0.0193,0.0524 0.0675,0.10473 0.0978,0.11851 0,0 0.04,0.0882 0.11852,0.11437 0.0868,0.0276 0.17776,0.0124 0.20532,0 -0.0593,-0.006 -0.12126,-0.0951 -0.10197,-0.10197 0.0703,-0.0262 0.15021,-0.0551 0.22875,-0.21222 0.0275,-0.0579 0.0785,-0.0524 0.0896,-0.0524 0.0951,0.01 0.17364,0.0634 0.24943,0.14332 0.0427,0.0469 0.0896,0.0951 0.10197,0.1502 0.0124,0.0455 0.0317,0.0785 0.0675,0.1006 0.0317,0.0207 0.15296,0.0441 0.1378,0.11989 -0.0193,0.1254 -0.004,0.24116 0,0.37069 0.004,0.12816 0.0193,0.30455 -0.04,0.27423"
         style="fill:#000000;fill-opacity:1;fill-rule:nonzero;stroke:none;stroke-width:0.35277778"
         inkscape:connector-curvature="0" />
      <path
         id="path1591"
         d="m 142.25046,176.19911 c -0.0469,-0.0813 -0.20119,-0.0882 -0.26458,-0.0785 -0.0551,0.008 -0.16123,0.0524 -0.18052,0.12402 0,0 0.04,0.0276 0.0469,0.0909 0.004,0.0537 0,0.10473 0.008,0.10886 0.0124,0.001 0.0124,0 0.0193,-0.0496 0.0124,-0.0648 0.0358,-0.0992 0.0717,-0.13367 0.0345,-0.0317 0.12265,-0.0413 0.10611,-0.001 -0.0152,0.0386 -0.0193,0.0813 -0.0152,0.12265 0.007,0.062 0.051,0.11438 0.062,0.0675 0.0165,-0.0455 0.0758,-0.11438 0.15848,-0.11851 0,0 0.0275,-0.0703 -0.0124,-0.13229"
         style="fill:#000000;fill-opacity:1;fill-rule:nonzero;stroke:none;stroke-width:0.35277778"
         inkscape:connector-curvature="0" />
      <path
         id="path1593"
         d="m 141.75437,176.29281 c 0.0427,0 0.051,0.10611 0.051,0.15021 0,0.0427 -0.0152,0.0469 -0.0317,0.0551 -0.0124,0.011 -0.0441,0.04 -0.0317,0.073 0.008,0.0331 0.004,0.062 -0.0358,0.0331 -0.0386,-0.0276 -0.0661,-0.11438 -0.0551,-0.16812 0.008,-0.0524 0.051,-0.14332 0.10336,-0.14332"
         style="fill:#000000;fill-opacity:1;fill-rule:nonzero;stroke:none;stroke-width:0.35277778"
         inkscape:connector-curvature="0" />
      <path
         id="path1595"
         d="m 141.99829,176.32175 c -0.004,-0.0289 -0.0469,0.0289 -0.0593,0.062 -0.0152,0.0469 -0.0275,0.12403 -0.0193,0.17226 0.0124,0.0482 0.0193,0.062 0.0358,0.0207 0.011,-0.0441 0.0593,-0.0744 0.0427,-0.11163 -0.0152,-0.0317 -0.0193,-0.0937 0,-0.14331"
         style="fill:#000000;fill-opacity:1;fill-rule:nonzero;stroke:none;stroke-width:0.35277778"
         inkscape:connector-curvature="0" />
      <path
         id="path1597"
         d="m 142.22291,176.39341 c -0.051,0.0358 -0.0786,0.10473 -0.0786,0.15021 0,0.0317 0.004,0.051 0.0234,0.0703 0.0152,0.0165 0.0276,0.0152 0.0358,-0.0248 0.003,-0.0234 0.0124,-0.0661 0.0317,-0.0799 0,0 -0.0289,-0.0331 -0.0124,-0.11576"
         style="fill:#000000;fill-opacity:1;fill-rule:nonzero;stroke:none;stroke-width:0.35277778"
         inkscape:connector-curvature="0" />
      <path
         id="path1599"
         d="m 141.37541,168.92306 0.0124,0.2577 h 0.0868 l 0.011,-0.2577 z m 0,0"
         style="fill:#000000;fill-opacity:1;fill-rule:nonzero;stroke:none;stroke-width:0.35277778"
         inkscape:connector-curvature="0" />
      <path
         id="path1601"
         d="m 141.22245,168.94787 -0.0992,0.0441 0.10611,0.23427 0.0841,-0.0344 -0.0882,-0.23565 z m 0,0"
         style="fill:#000000;fill-opacity:1;fill-rule:nonzero;stroke:none;stroke-width:0.35277778"
         inkscape:connector-curvature="0" />
      <path
         id="path1603"
         d="m 140.99645,169.06776 -0.0786,0.0758 0.18603,0.18052 0.0662,-0.0606 -0.16536,-0.18879 z m 0,0"
         style="fill:#000000;fill-opacity:1;fill-rule:nonzero;stroke:none;stroke-width:0.35277778"
         inkscape:connector-curvature="0" />
      <path
         id="path1605"
         d="m 140.84349,169.24415 -0.051,0.0951 0.22875,0.11575 0.0427,-0.0786 -0.21221,-0.12815 z m 0,0"
         style="fill:#000000;fill-opacity:1;fill-rule:nonzero;stroke:none;stroke-width:0.35277778"
         inkscape:connector-curvature="0" />
      <path
         id="path1607"
         d="m 140.75254,169.47152 -0.0152,0.10887 0.25631,0.0248 0.0152,-0.0882 -0.24804,-0.0441 z m 0,0"
         style="fill:#000000;fill-opacity:1;fill-rule:nonzero;stroke:none;stroke-width:0.35277778"
         inkscape:connector-curvature="0" />
      <path
         id="path1609"
         d="m 140.99369,169.69201 h -0.26044 v 0.10335 h 0.26044 z m 0,0"
         style="fill:#000000;fill-opacity:1;fill-rule:nonzero;stroke:none;stroke-width:0.35277778"
         inkscape:connector-curvature="0" />
      <path
         id="path1611"
         d="m 141.63586,168.94787 -0.0868,0.24391 0.0786,0.0344 0.11024,-0.23427 -0.0937,-0.04 z m 0,0"
         style="fill:#000000;fill-opacity:1;fill-rule:nonzero;stroke:none;stroke-width:0.35277778"
         inkscape:connector-curvature="0" />
      <path
         id="path1613"
         d="m 141.86462,169.06362 -0.17364,0.19982 0.0634,0.062 0.1888,-0.18741 -0.0758,-0.0703 z m 0,0"
         style="fill:#000000;fill-opacity:1;fill-rule:nonzero;stroke:none;stroke-width:0.35277778"
         inkscape:connector-curvature="0" />
      <path
         id="path1615"
         d="m 142.02171,169.24139 -0.22738,0.13505 0.0427,0.0799 0.23978,-0.11851 -0.051,-0.0909 z m 0,0"
         style="fill:#000000;fill-opacity:1;fill-rule:nonzero;stroke:none;stroke-width:0.35277778"
         inkscape:connector-curvature="0" />
      <path
         id="path1617"
         d="m 142.11679,169.47152 -0.26458,0.0455 0.0124,0.0882 0.26872,-0.0248 -0.0166,-0.10059 z m 0,0"
         style="fill:#000000;fill-opacity:1;fill-rule:nonzero;stroke:none;stroke-width:0.35277778"
         inkscape:connector-curvature="0" />
      <path
         id="path1619"
         d="m 141.86875,169.69201 v 0.10335 h 0.27147 v -0.10335 z m 0,0"
         style="fill:#000000;fill-opacity:1;fill-rule:nonzero;stroke:none;stroke-width:0.35277778"
         inkscape:connector-curvature="0" />
      <path
         id="path1621"
         d="m 141.2569,169.64378 c 0.0124,-0.0152 0.0207,-0.0138 0.0207,0.011 0.003,0.0372 0.0234,0.0786 0.0551,0.0937 0.0427,0.0193 0.0744,0.062 0.0744,0.10611 v 0.13504 c 0,0.0662 -0.0469,0.0868 -0.0951,0.0868 -0.051,0 -0.12127,-0.0207 -0.12127,-0.16398 0,-0.1254 0.0275,-0.22049 0.0661,-0.26872"
         style="fill:#000000;fill-opacity:1;fill-rule:nonzero;stroke:none;stroke-width:0.35277778"
         inkscape:connector-curvature="0" />
      <path
         id="path1623"
         d="m 141.05984,169.58452 c 0.0317,0.0179 0.0909,0.04 0.15021,0.0179 0.0193,-0.008 0.0317,0 0.0165,0.0193 -0.0207,0.0193 -0.0758,0.10749 -0.0758,0.2384 v 0.0537 c 0,0.0207 -0.0152,0.0138 -0.0275,0.007 -0.0234,-0.0124 -0.0951,-0.0937 -0.0951,-0.24391 0,-0.12402 0.0317,-0.0923 0.0317,-0.0923"
         style="fill:#000000;fill-opacity:1;fill-rule:nonzero;stroke:none;stroke-width:0.35277778"
         inkscape:connector-curvature="0" />
      <path
         id="path1625"
         d="m 141.60416,169.64378 c -0.0124,-0.0152 -0.0193,-0.0138 -0.0234,0.011 0,0.0372 -0.0234,0.0786 -0.0551,0.0937 -0.0441,0.0193 -0.0717,0.062 -0.0717,0.10611 v 0.13504 c 0,0.0662 0.0441,0.0868 0.0951,0.0868 0.0469,0 0.11852,-0.0207 0.11852,-0.16398 0,-0.1254 -0.0276,-0.22049 -0.0634,-0.26872"
         style="fill:#000000;fill-opacity:1;fill-rule:nonzero;stroke:none;stroke-width:0.35277778"
         inkscape:connector-curvature="0" />
      <path
         id="path1627"
         d="m 141.43053,169.67134 h 0.10611 c 0.0124,0 0.0207,-0.01 0.0207,-0.0179 v -0.15847 c 0,-0.008 0.007,-0.0179 0.0152,-0.0179 h 0.20946 c 0.007,0 0.007,-0.011 0.007,-0.0165 -0.0537,-0.1447 -0.19568,-0.2453 -0.35829,-0.2453 -0.16536,0 -0.3073,0.1006 -0.35829,0.2453 -0.004,0.006 0,0.0165 0.008,0.0165 h 0.20809 c 0.008,0 0.0152,0.01 0.0152,0.0179 v 0.15847 c 0,0.008 0.01,0.0179 0.0166,0.0179 h 0.11024"
         style="fill:#000000;fill-opacity:1;fill-rule:nonzero;stroke:none;stroke-width:0.35277778"
         inkscape:connector-curvature="0" />
      <path
         id="path1629"
         d="m 141.80122,169.58452 c -0.0358,0.0179 -0.0951,0.04 -0.1502,0.0179 -0.0234,-0.008 -0.0344,0 -0.0152,0.0193 0.0152,0.0193 0.0703,0.10749 0.0703,0.2384 v 0.0537 c 0.004,0.0207 0.0165,0.0138 0.0275,0.007 0.0248,-0.0124 0.0992,-0.0937 0.0992,-0.24391 0,-0.12402 -0.0317,-0.0923 -0.0317,-0.0923"
         style="fill:#000000;fill-opacity:1;fill-rule:nonzero;stroke:none;stroke-width:0.35277778"
         inkscape:connector-curvature="0" />
      <path
         id="path1631"
         d="m 138.67584,171.87482 c -0.0207,0.0207 -0.2136,0.21498 -0.2136,0.21498 l -0.22462,-0.226 v 0.43408 c 0.0469,0.0482 0.20533,0.20533 0.22462,0.22462 0.0193,-0.0221 0.2136,-0.21773 0.2136,-0.21773 0,0 0.20119,0.20119 0.22048,0.22186 0.0193,-0.0179 0.16123,-0.16123 0.22049,-0.22048 v -0.43133 l -0.22049,0.21911 c 0,0 -0.19706,-0.19844 -0.22048,-0.21911"
         style="fill:#000000;fill-opacity:1;fill-rule:nonzero;stroke:none;stroke-width:0.35277778"
         inkscape:connector-curvature="0" />
      <path
         id="path1633"
         d="m 139.07271,171.68327 c 0.0124,0.011 0.0275,0.0207 0.0441,0.0276 v -0.31556 l -0.22049,0.22048 c 0,0 -0.19706,-0.19981 -0.22048,-0.22048 -0.0207,0.0207 -0.2136,0.21497 -0.2136,0.21497 l -0.22462,-0.22462 v 0.32522 c 0.0166,-0.005 0.0317,-0.0152 0.0427,-0.0276 0,0 0.04,0.0882 -0.0317,0.14745 0.0593,0.0606 0.19431,0.1943 0.2136,0.21222 0.0193,-0.022 0.2136,-0.21636 0.2136,-0.21636 0,0 0.20119,0.19844 0.22048,0.22049 0.0152,-0.0165 0.14883,-0.14883 0.21222,-0.21222 -0.0786,-0.0592 -0.0358,-0.15158 -0.0358,-0.15158"
         style="fill:#000000;fill-opacity:1;fill-rule:nonzero;stroke:none;stroke-width:0.35277778"
         inkscape:connector-curvature="0" />
      <path
         id="path1635"
         d="m 138.67584,171.34703 c 0,0 0.20119,0.19982 0.22048,0.22049 0.0193,-0.0165 0.16123,-0.15985 0.22049,-0.21911 v -0.0675 c -0.12127,-0.0358 -0.15021,-0.0772 -0.15021,-0.0772 0,0 0.0234,-0.0413 0.15021,-0.0786 v -0.20946 l -0.22049,0.22049 c 0,0 -0.19706,-0.19844 -0.22048,-0.22049 -0.0207,0.0207 -0.2136,0.21635 -0.2136,0.21635 l -0.22462,-0.226 v 0.21773 c 0.12678,0.0386 0.14883,0.0799 0.14883,0.0799 0,0 -0.0303,0.0413 -0.14883,0.0786 v 0.0565 c 0.0469,0.0482 0.20533,0.20533 0.22462,0.22462 0.0193,-0.0221 0.2136,-0.21635 0.2136,-0.21635"
         style="fill:#000000;fill-opacity:1;fill-rule:nonzero;stroke:none;stroke-width:0.35277778"
         inkscape:connector-curvature="0" />
      <path
         id="path1637"
         d="m 138.67584,170.38792 c 0,0 0.20119,0.19981 0.22048,0.22186 0.0193,-0.0179 0.16123,-0.16123 0.22049,-0.22048 v -0.43133 l -0.22049,0.21911 c 0,0 -0.19706,-0.19982 -0.22048,-0.21911 -0.0207,0.0193 -0.2136,0.21497 -0.2136,0.21497 l -0.22462,-0.22462 v 0.43133 c 0.0469,0.0496 0.20533,0.20671 0.22462,0.226 0.0193,-0.0221 0.2136,-0.21773 0.2136,-0.21773"
         style="fill:#000000;fill-opacity:1;fill-rule:nonzero;stroke:none;stroke-width:0.35277778"
         inkscape:connector-curvature="0" />
      <path
         id="path1639"
         d="m 139.05755,170.72967 c -0.0124,-0.0965 0.0124,-0.14745 0.0593,-0.18052 v -0.11162 l -0.22048,0.21911 c 0,0 -0.19707,-0.19844 -0.22187,-0.22049 -0.0193,0.0221 -0.21222,0.21497 -0.21222,0.21497 l -0.22462,-0.22462 v 0.12127 c 0.0427,0.0317 0.0703,0.0827 0.0593,0.1819 0,0 -0.0193,-0.0262 -0.0593,-0.0386 v 0.16812 c 0.0469,0.0482 0.20533,0.20671 0.22462,0.22325 0.0193,-0.0193 0.21222,-0.21498 0.21222,-0.21498 0,0 0.20257,0.19982 0.22187,0.22187 0.0193,-0.0179 0.16123,-0.16124 0.22048,-0.22187 v -0.17639 c -0.0386,0.0138 -0.0593,0.0386 -0.0593,0.0386"
         style="fill:#000000;fill-opacity:1;fill-rule:nonzero;stroke:none;stroke-width:0.35277778"
         inkscape:connector-curvature="0" />
      <path
         id="path1641"
         d="m 140.62989,171.07694 c -0.0427,-0.0744 -0.15296,-0.10887 -0.28663,-0.0703 -0.13505,0.0386 -0.34726,0.0772 -0.48507,0.0772 -0.14331,0 -0.22462,-0.0276 -0.26872,-0.0909 -0.0234,-0.0413 -0.0386,-0.10611 -0.0744,-0.16537 -0.0234,-0.0427 -0.0744,-0.0799 -0.1378,-0.10197 0,0 -0.0124,-0.17501 -0.1819,-0.16123 -0.008,0.001 -0.0152,0.004 -0.0193,0.005 -0.0551,0.0124 -0.0868,0.0551 -0.0868,0.0951 0,0 0.0193,-0.0262 0.0675,-0.0248 0.007,0 0.0152,0.003 0.0234,0.006 0.0344,0.0152 0.051,0.0675 0.0303,0.10197 -0.003,0.003 -0.011,0.0138 -0.0262,0.0427 -0.0276,0.0482 -0.0207,0.0896 -0.008,0.11438 0,0 0.0551,-0.0372 0.11024,-0.0234 0,0 -0.0193,-0.008 -0.0234,-0.04 -0.008,-0.0317 0.0358,-0.0469 0.0675,-0.0455 0.0427,0.001 0.1254,0.0248 0.16123,0.12127 0.0317,0.0951 0.0703,0.19706 0.23565,0.23151 0.10335,0.0193 0.24942,0.04 0.3197,0.0579 0.0786,0.0193 0.15021,0.0469 0.15847,0.0868 0.003,0.0413 -0.0565,0.0758 -0.11851,0.0923 -0.0551,0.0165 -0.16536,0.0303 -0.24116,0.0303 -0.15296,0 -0.25631,-0.0124 -0.33072,0.0303 -0.0275,0.0152 -0.0592,0.0413 -0.0744,0.062 -0.0441,0.0537 -0.0841,0.0717 -0.11438,0.0785 -0.04,0.008 -0.0675,-0.0152 -0.0593,-0.0482 0.007,-0.0234 0.0193,-0.0331 0.0193,-0.0331 -0.0675,0.01 -0.11024,-0.022 -0.11024,-0.022 -0.0124,0.0262 -0.0166,0.0634 0.008,0.10473 0.007,0.011 0.0234,0.0372 0.0234,0.0372 0.0234,0.04 0.0152,0.0992 -0.0234,0.12127 -0.008,0.003 -0.0165,0.006 -0.0248,0.007 -0.0427,0.008 -0.0703,-0.0138 -0.0703,-0.0138 0.008,0.0579 0.0469,0.0841 0.0951,0.0868 0.003,0 0.007,0 0.011,0 0.15434,0 0.20119,-0.16812 0.20119,-0.16812 0.0551,-0.113 0.12264,-0.14607 0.16261,-0.16123 0.0469,-0.0165 0.10197,-0.0193 0.24667,0.0124 0.12678,0.0276 0.24116,0.0386 0.34038,0.0331 0.27836,-0.0179 0.39825,-0.0813 0.4575,-0.17088 0.0593,-0.0896 0.0661,-0.22324 0.0262,-0.2949"
         style="fill:#000000;fill-opacity:1;fill-rule:nonzero;stroke:none;stroke-width:0.35277778"
         inkscape:connector-curvature="0" />
      <path
         id="path1643"
         d="m 139.16366,171.29191 c -0.007,0.011 -0.011,0.0276 -0.007,0.0551 0.004,0.0455 0.0551,0.10473 0.15296,0.10473 0.10611,0 0.2136,-0.073 0.2136,-0.25356 0,-0.18328 -0.10749,-0.25493 -0.2136,-0.25493 -0.0978,0 -0.14883,0.0565 -0.15296,0.10611 -0.004,0.022 0,0.04 0.007,0.0579 0.0827,0 0.15021,0.0358 0.15021,0.0896 0,0.0675 -0.0634,0.10197 -0.15021,0.0951"
         style="fill:#000000;fill-opacity:1;fill-rule:nonzero;stroke:none;stroke-width:0.35277778"
         inkscape:connector-curvature="0" />
      <path
         id="path1645"
         d="m 139.02172,171.20234 c 0.051,0.0289 0.10336,0.0413 0.13092,0.0482 0.007,0.001 0.0152,0.003 0.0152,0.003 0.0207,0.001 0.0992,0.008 0.0992,-0.051 0,-0.0482 -0.0634,-0.0524 -0.0992,-0.0524 0,0 -0.008,0 -0.0124,0.001 -0.0262,0.004 -0.0772,0.0193 -0.13367,0.051"
         style="fill:#000000;fill-opacity:1;fill-rule:nonzero;stroke:none;stroke-width:0.35277778"
         inkscape:connector-curvature="0" />
      <path
         id="path1647"
         d="m 141.44707,173.48713 v 0.051 c 0,0.003 0.004,0.007 0.007,0.007 h 0.0868 c 0.004,0 0.004,-0.004 0.004,-0.007 v -0.0909 c 0,-0.003 0,-0.006 -0.004,-0.006 h -0.0868 c -0.003,0 -0.007,0.003 -0.007,0.006 v 0.0427 l -0.10336,0.001 v -0.2219 h 0.10336 v 0.0579 c 0,0.003 0.004,0.006 0.007,0.006 h 0.0868 c 0.004,0 0.004,-0.003 0.004,-0.006 v -0.0909 c 0,-0.003 0,-0.007 -0.004,-0.007 h -0.0868 c -0.003,0 -0.007,0.004 -0.007,0.007 v 0.0372 h -0.10336 v -0.19844 h 0.10335 v 0.0537 c 0,0.006 0.004,0.007 0.007,0.007 h 0.0868 c 0.004,0 0.004,-0.001 0.004,-0.007 v -0.0896 c 0,-0.003 0,-0.006 -0.004,-0.006 h -0.0868 c -0.003,0 -0.007,0.003 -0.007,0.006 v 0.0441 h -0.10336 v -0.1378 c 0,-0.0331 0.0207,-0.0606 0.0358,-0.0675 l 0.011,-0.007 v -0.0165 h 0.0565 v 0.0689 c 0,0.003 0.004,0.006 0.007,0.006 h 0.0868 c 0.004,0 0.004,-0.003 0.004,-0.006 v -0.0882 c 0,-0.005 0,-0.008 -0.004,-0.008 h -0.0868 c -0.003,0 -0.007,0.003 -0.007,0.008 v 0.0234 h -0.0565 v -0.13367 c 0,0 0.27698,0.0593 0.43821,-0.14745 0.0124,-0.01 0.0234,0 0.0234,0.0207 0,0.0221 -0.007,0.12402 0.0785,0.14056 0,0 -0.0896,0.0331 -0.1378,0.0965 -0.0386,0.051 -0.0703,0.13918 -0.0703,0.30592 v 0.21498 c 0,0.13367 -0.0207,0.26734 -0.10335,0.26734 -0.18053,0 -0.22876,0.04 -0.22876,0.04 -0.0386,0 -0.0468,-0.0689 -0.0468,-0.11025 v -0.0648 l 0.10335,-0.001"
         style="fill:#000000;fill-opacity:1;fill-rule:nonzero;stroke:none;stroke-width:0.35277778"
         inkscape:connector-curvature="0" />
      <path
         id="path1649"
         d="m 142.4117,175.27444 c 0.0593,0.0207 0.12264,0.0221 0.17776,0.006 0.0593,-0.0193 0.0951,-0.011 0.11438,0.01 0.0124,0.0221 0.008,0.0882 -0.003,0.11989 -0.0166,0.0372 -0.0207,0.0565 -0.0441,0.0882 -0.0124,0.0165 -0.0358,0.0165 -0.0551,0.003 -0.0317,-0.022 -0.0482,-0.0303 -0.0717,-0.0358 -0.0193,-0.007 -0.051,-0.0193 -0.062,-0.0524 -0.0124,-0.0303 -0.0441,-0.0965 -0.0634,-0.11713 -0.0207,-0.022 -0.0124,-0.0289 0.007,-0.0207"
         style="fill:#000000;fill-opacity:1;fill-rule:nonzero;stroke:none;stroke-width:0.35277778"
         inkscape:connector-curvature="0" />
      <path
         id="path1651"
         d="m 140.24818,173.65387 c 0.0276,0.0634 0.0868,0.10749 0.1695,0.12678 0.0166,0.004 0.1061,-0.007 0.12677,-0.0234 0,0 -0.14193,0.13643 -0.15434,0.5209 0,0.0579 -0.004,0.0937 0,0.14883 0,0.0221 0.0124,0.10197 -0.0786,0.0703 -0.0827,-0.0317 -0.22875,-0.0744 -0.32383,-0.0758 -0.17364,-0.003 -0.32246,0.062 -0.36656,0.0744 -0.0551,0.0179 -0.0786,0.008 -0.0909,-0.004 -0.0317,-0.0358 0.11437,-0.1447 0.40652,-0.15986 0.0992,-0.004 0.20119,-0.007 0.23289,-0.01 0.0386,-0.004 0.1061,-0.0221 0.1378,-0.0786 0.0275,-0.0469 0.0275,-0.14607 0.004,-0.24666 -0.0165,-0.0799 -0.0593,-0.25081 -0.0634,-0.34314"
         style="fill:#000000;fill-opacity:1;fill-rule:nonzero;stroke:none;stroke-width:0.35277778"
         inkscape:connector-curvature="0" />
      <path
         id="path1653"
         d="m 137.27988,171.29742 c 0,0.0262 0.12127,0.073 0.33487,0.0565 0.051,-0.005 0.1378,0 0.17363,0.011 0,0 -0.04,-0.0992 -0.0193,-0.19154 0,0 -0.11025,0.0441 -0.17364,0.0551 -0.0951,0.0152 -0.31557,0.0331 -0.31557,0.0689"
         style="fill:#000000;fill-opacity:1;fill-rule:nonzero;stroke:none;stroke-width:0.35277778"
         inkscape:connector-curvature="0" />
      <path
         id="path1655"
         d="m 140.09108,171.29742 c 0,0.0262 -0.12678,0.073 -0.33624,0.0565 -0.0551,-0.005 -0.14194,0 -0.17226,0.011 0,0 0.0345,-0.0992 0.0193,-0.19154 0,0 0.10611,0.0441 0.17364,0.0551 0.0896,0.0152 0.31557,0.0331 0.31557,0.0689"
         style="fill:#000000;fill-opacity:1;fill-rule:nonzero;stroke:none;stroke-width:0.35277778"
         inkscape:connector-curvature="0" />
      <path
         id="path1657"
         d="m 139.3056,174.07968 c -0.0193,-0.04 -0.0909,-0.0772 -0.1254,-0.0772 0,0 -0.004,0.001 -0.008,0.001 -0.0441,0.001 -0.0675,0.0124 -0.10198,0.0413 0,0 0.0469,0.0179 0.0813,0.0593 0.0124,0.0124 0.0248,0.0289 0.0372,0.0469 0,0 0.0427,-0.0551 0.11714,-0.0717 m -0.13368,-0.48369 c 0.004,0.004 0.008,0.005 0.0165,0.01 0.0262,0.022 0.0427,0.0744 0.0427,0.0744 0,0 0.04,-0.0524 0.13367,-0.0593 -0.0427,-0.0717 -0.12127,-0.10748 -0.16123,-0.10748 -0.008,0 -0.0152,0 -0.0234,0.001 -0.0317,0.006 -0.0634,0.0207 -0.091,0.0441 0,0 0.0358,0.001 0.0827,0.0372 m 0.10611,0.226 c -0.0234,-0.0427 -0.0551,-0.0786 -0.0868,-0.0896 -0.003,-0.005 -0.0152,-0.007 -0.0234,-0.01 -0.0551,-0.011 -0.0978,0.0248 -0.0978,0.0455 0.04,0.01 0.0661,0.0303 0.0868,0.051 0.0234,0.0221 0.0345,0.0427 0.0345,0.0427 0.0358,-0.0331 0.0868,-0.04 0.0868,-0.04 m 0.0275,-0.0593 c 0.0358,0.0358 0.0317,0.0551 0.0317,0.0551 0.0992,0.004 0.16536,0.0799 0.16536,0.0799 0.0207,-0.0606 0.0358,-0.15297 -0.0386,-0.20809 -0.0758,-0.0537 -0.1819,-0.006 -0.20946,0.0193 -0.0276,0.0262 0.0124,0.0179 0.051,0.0537 m -0.0951,0.16537 c 0.0675,0.003 0.13092,0.0868 0.15847,0.14469 0.0358,-0.0124 0.16123,0.0551 0.14608,-0.0551 -0.0124,-0.0661 -0.0717,-0.14331 -0.14194,-0.15572 -0.0744,-0.0138 -0.15434,0.0179 -0.1819,0.04 -0.0193,0.0138 -0.0152,0.0221 0.0193,0.0262 m 1.74322,-0.31143 c -0.23702,0 -0.35416,0.14745 -0.40239,0.22462 -0.10197,0.16536 -0.11024,0.49471 -0.10197,0.57877 0.0124,0.11438 -0.0427,0.14056 -0.0758,0.1447 -0.0358,0.006 -0.0827,-0.005 -0.12127,-0.0248 -0.14194,-0.0593 -0.30317,-0.0827 -0.46578,-0.0331 -0.0551,0.0152 -0.18466,0.0744 -0.26045,0.0524 -0.0592,-0.0179 -0.0896,-0.0579 -0.051,-0.12127 0.0634,-0.10611 0.35829,-0.17363 0.56775,-0.16536 0.0827,0.003 0.1819,-0.003 0.2136,-0.0648 0.0276,-0.0482 0.0234,-0.0965 -0.0275,-0.31557 -0.0758,-0.32935 -0.0207,-0.49885 -0.0207,-0.49885 -0.062,0.0648 -0.0744,0.16123 -0.0744,0.2384 -0.008,0.13229 0.0124,0.33073 0.0317,0.40101 0.0193,0.0717 0.0124,0.12678 -0.0992,0.15434 -0.10611,0.0248 -0.20119,0.0372 -0.31557,0.0179 -0.0854,-0.0152 -0.17225,-0.13643 -0.18465,-0.20395 0.004,0.0234 0.004,0.0868 -0.0358,0.11575 -0.0317,0.0221 -0.0662,0.0193 -0.11025,0.008 -0.0469,-0.01 -0.12953,-0.0165 -0.20119,0.0537 -0.0675,0.0703 -0.062,0.20946 -0.0276,0.2825 0.0358,0.0772 0.11437,0.17915 0.25632,0.17915 0.1502,0 0.43408,-0.0207 0.56775,-0.0138 0.14607,0.007 0.21635,0.0234 0.3073,0.0303 0.051,0.003 0.12678,-0.011 0.1695,0.01 0.04,0.0165 0.0827,0.022 0.11851,-0.001 0.0358,-0.022 0.0482,-0.0772 0.04,-0.12541 0,0 -0.0317,-0.23702 -0.0166,-0.45613 0.008,-0.0565 0.0276,-0.0896 0.0992,-0.051 0.0703,0.0386 0.17776,0.0717 0.26733,0.0717 0.0868,0 0.19017,-0.04 0.226,-0.2384 0.0152,-0.0937 -0.0358,-0.24942 -0.27285,-0.24942 m -2.77123,0.38723 c -0.004,0 -0.008,-0.001 -0.011,-0.001 -0.0331,0 -0.10336,0.0372 -0.12265,0.0772 0.0744,0.0165 0.12265,0.0717 0.12265,0.0717 0.007,-0.0179 0.0193,-0.0344 0.0303,-0.0469 0.0358,-0.0413 0.0785,-0.0593 0.0785,-0.0593 -0.0303,-0.0289 -0.0551,-0.04 -0.0978,-0.0413 m -0.0593,-0.32384 c 0,0 0.0152,-0.0524 0.0482,-0.0744 0.003,-0.004 0.007,-0.005 0.011,-0.01 0.0469,-0.0358 0.0827,-0.0372 0.0827,-0.0372 -0.0275,-0.0234 -0.0593,-0.0386 -0.0909,-0.0441 -0.008,-10e-4 -0.0152,-10e-4 -0.0234,-10e-4 -0.0386,0 -0.12265,0.0358 -0.1571,0.10748 0.0896,0.007 0.12953,0.0593 0.12953,0.0593 m 0.16261,0.0882 c 0,-0.0207 -0.0441,-0.0565 -0.0992,-0.0455 -0.008,0.003 -0.0152,0.004 -0.0275,0.01 -0.0275,0.011 -0.0592,0.0469 -0.0827,0.0896 0,0 0.051,0.007 0.0854,0.04 0,0 0.0124,-0.0207 0.0358,-0.0427 0.0207,-0.0207 0.0482,-0.0413 0.0882,-0.051 m -0.26872,0.0496 c 0,0 -0.004,-0.0193 0.0317,-0.0551 0.0386,-0.0358 0.0786,-0.0276 0.051,-0.0537 -0.0234,-0.0248 -0.13367,-0.073 -0.20946,-0.0193 -0.0744,0.0551 -0.0593,0.14745 -0.0386,0.20809 0,0 0.0661,-0.0758 0.16536,-0.0799 m -0.0317,0.0441 c -0.0744,0.0124 -0.13367,0.0896 -0.14607,0.15572 -0.0152,0.11024 0.11024,0.0427 0.14607,0.0551 0.0234,-0.0579 0.0909,-0.14194 0.1571,-0.1447 0.0358,-0.004 0.04,-0.0124 0.0193,-0.0262 -0.0262,-0.0221 -0.10611,-0.0537 -0.17639,-0.04 m -0.051,0.26321 c -0.0441,0.011 -0.0786,0.0138 -0.11024,-0.008 -0.04,-0.0289 -0.04,-0.0923 -0.0358,-0.11576 -0.0124,0.0675 -0.0992,0.18879 -0.19017,0.20395 -0.10886,0.0193 -0.20395,0.007 -0.31006,-0.0179 -0.11024,-0.0276 -0.11851,-0.0827 -0.0992,-0.15434 0.0166,-0.0703 0.04,-0.26872 0.0317,-0.40101 0,-0.0772 -0.0124,-0.17363 -0.0744,-0.2384 0,0 0.0551,0.1695 -0.0207,0.49885 -0.051,0.21911 -0.0551,0.26734 -0.0276,0.31557 0.0317,0.062 0.13092,0.0675 0.2136,0.0648 0.21222,-0.008 0.50436,0.0593 0.56775,0.16537 0.0386,0.0634 0.007,0.10335 -0.051,0.12126 -0.0758,0.0221 -0.2067,-0.0372 -0.26045,-0.0524 -0.16123,-0.0496 -0.32384,-0.0262 -0.46577,0.0331 -0.0386,0.0193 -0.0909,0.0303 -0.12265,0.0248 -0.0303,-0.004 -0.0868,-0.0303 -0.0744,-0.14469 0.008,-0.0841 0,-0.41341 -0.10198,-0.57878 -0.0482,-0.0772 -0.16674,-0.22462 -0.40239,-0.22462 -0.23702,0 -0.288,0.15572 -0.27147,0.24943 0.0303,0.19844 0.13367,0.2384 0.22324,0.2384 0.0909,0 0.19844,-0.0331 0.26872,-0.0717 0.0703,-0.0386 0.0909,-0.006 0.0951,0.051 0.0193,0.21911 -0.0152,0.45613 -0.0152,0.45613 -0.006,0.0482 0.007,0.10335 0.0427,0.1254 0.0358,0.0234 0.0786,0.0179 0.11851,10e-4 0.0427,-0.0207 0.11713,-0.007 0.1695,-0.01 0.0937,-0.007 0.16123,-0.0234 0.3073,-0.0303 0.13367,-0.007 0.41341,0.0138 0.56776,0.0138 0.14193,0 0.22048,-0.10197 0.25493,-0.17914 0.0358,-0.073 0.0441,-0.21222 -0.0262,-0.2825 -0.0717,-0.0703 -0.15847,-0.0634 -0.20119,-0.0537 m 0.74138,0.14469 c -0.0207,0.0221 -0.21359,0.21635 -0.21359,0.21635 l -0.22462,-0.22599 v 0.4327 c 0.0482,0.0482 0.20532,0.20671 0.22462,0.22462 0.0193,-0.0207 0.21359,-0.21497 0.21359,-0.21497 0,0 0.20119,0.19843 0.22049,0.2191 0.0193,-0.0165 0.16123,-0.15985 0.22048,-0.2191 v -0.43271 l -0.22046,0.22186 c 0,0 -0.19706,-0.19981 -0.22049,-0.22186 m 0.34588,-0.19982 c 0.008,-0.0455 0.0482,-0.0758 0.0951,-0.0951 v -0.13918 c -0.007,-0.008 -0.0166,-0.0138 -0.0276,-0.0193 l -0.19293,0.19568 -0.19293,-0.19568 -0.0166,-0.0152 -0.011,-0.01 -0.0248,0.0234 c -0.0579,0.0579 -0.18879,0.19155 -0.18879,0.19155 l -0.19293,-0.19293 c -0.0124,0.005 -0.0193,0.0124 -0.0317,0.0234 v 0.13781 c 0.0482,0.0193 0.0868,0.0496 0.0951,0.0951 0,0 -0.0551,0.001 -0.0951,0.0537 v 0.0909 c 0.0482,0.0469 0.20533,0.2067 0.22462,0.22324 0.0193,-0.0207 0.2136,-0.21498 0.2136,-0.21498 0,0 0.20119,0.19982 0.22049,0.22049 0.0193,-0.0179 0.16123,-0.16123 0.22048,-0.22049 v -0.10059 c -0.0427,-0.051 -0.0951,-0.0524 -0.0951,-0.0524 m -0.70142,-0.48094 c 0,0 -0.0427,-0.004 -0.0827,0.0207 v 0.0744 c 0.0551,0.0152 0.0868,0.0634 0.0951,0.113 0,0 -0.0124,0 -0.0317,0.004 l 0.0152,0.0124 0.13505,0.13505 c 0.003,0.006 0.007,0.008 0.011,0.011 0.0124,-0.0124 0.0868,-0.0868 0.14193,-0.14469 0.004,-0.004 0.0124,-0.008 0.0152,-0.0138 0.0317,-0.0331 0.0565,-0.0565 0.0565,-0.0565 l 0.0593,0.0565 0.0152,0.0152 0.14607,0.14745 c 0.011,-0.011 0.0827,-0.0841 0.14607,-0.14745 0.008,-0.005 0.011,-0.01 0.0152,-0.0152 -0.0193,-0.004 -0.0358,-0.004 -0.0358,-0.004 0.008,-0.0496 0.04,-0.0965 0.0951,-0.11162 v -0.0772 c -0.0427,-0.0234 -0.0868,-0.0193 -0.0868,-0.0193 0.008,-0.0455 0.0441,-0.0758 0.0868,-0.0978 v -0.17914 l -0.22049,0.22048 c 0,0 -0.19706,-0.19981 -0.22048,-0.22048 -0.0207,0.0207 -0.2136,0.21497 -0.2136,0.21497 l -0.22462,-0.22462 v 0.18741 c 0.0427,0.0234 0.0786,0.0537 0.0827,0.0992 m 0.14194,-0.10886 c 0.0193,-0.0221 0.2136,-0.21635 0.2136,-0.21635 0,0 0.20119,0.19981 0.22048,0.22048 0.0193,-0.0165 0.16123,-0.16123 0.22049,-0.21911 v -0.4327 l -0.22049,0.21911 c 0,0 -0.19706,-0.19844 -0.22048,-0.21911 -0.0207,0.0207 -0.2136,0.21635 -0.2136,0.21635 l -0.22462,-0.22462 v 0.43133 c 0.0482,0.0482 0.20532,0.2067 0.22462,0.22462"
         style="fill:#000000;fill-opacity:1;fill-rule:nonzero;stroke:none;stroke-width:0.35277778"
         inkscape:connector-curvature="0" />
    </g>
  </g>
</svg>
